SplineFontDB: 3.0
FontName: Annaheim-500wt
FullName: Annaheim 500 wt
FamilyName: Annaheim
Weight: Medium
Copyright: Copyright (c) 2010 by vernon adams. All rights reserved.
Version: 1.000
FONDName: Annaheim 500 wt
ItalicAngle: 0
UnderlinePosition: -205
UnderlineWidth: 102
Ascent: 1638
Descent: 410
UFOAscent: 1308
UFODescent: -389
LayerCount: 2
Layer: 0 0 "Back"  1
Layer: 1 0 "Fore"  0
NeedsXUIDChange: 1
FSType: 0
OS2Version: 0
OS2_WeightWidthSlopeOnly: 0
OS2_UseTypoMetrics: 0
CreationTime: 1315502790
ModificationTime: 1315514896
PfmFamily: 0
TTFWeight: 500
TTFWidth: 0
LineGap: 106
VLineGap: 0
Panose: 2 0 5 6 0 0 0 2 0 4
OS2TypoAscent: 1386
OS2TypoAOffset: 0
OS2TypoDescent: -389
OS2TypoDOffset: 0
OS2TypoLinegap: 106
OS2WinAscent: 1880
OS2WinAOffset: 0
OS2WinDescent: -947
OS2WinDOffset: 0
HheadAscent: 1386
HheadAOffset: 0
HheadDescent: -389
HheadDOffset: 0
OS2SubXSize: 1434
OS2SubYSize: 1331
OS2SubXOff: 0
OS2SubYOff: 287
OS2SupXSize: 1434
OS2SupYSize: 1331
OS2SupXOff: 0
OS2SupYOff: 977
OS2StrikeYSize: 102
OS2StrikeYPos: 512
OS2FamilyClass: 2048
OS2Vendor: 'newt'
OS2CodePages: 20000193.00000000
OS2UnicodeRanges: a000008f.4000204a.00000000.00000000
MarkAttachClasses: 1
DEI: 91125
LangName: 1033 "" "" "" "vernonadams: Annaheim: 2010" "" "Version 1.000" "" "Annaheim is a trademark of vernon adams." "vernon adams" "vernon adams" "Copyright (c) 2010 by vernon adams. All rights reserved." "" "" "" "http://scripts.sil.org/OFL" "" "" "" "Annaheim" 
PickledData: "(dp1
S'org.robofab.glyphOrder'
p2
(S'.notdef'
S'space'
S'exclam'
S'quotedbl'
S'numbersign'
S'dollar'
S'percent'
S'ampersand'
S'quotesingle'
S'parenleft'
S'parenright'
S'asterisk'
S'plus'
S'comma'
S'hyphen'
S'period'
S'slash'
S'zero'
S'one'
S'two'
S'three'
S'four'
S'five'
S'six'
S'seven'
S'eight'
S'nine'
S'colon'
S'semicolon'
S'less'
S'equal'
S'greater'
S'question'
S'at'
S'A'
S'B'
S'C'
S'D'
S'E'
S'F'
S'G'
S'H'
S'I'
S'J'
S'K'
S'L'
S'M'
S'N'
S'O'
S'P'
S'Q'
S'R'
S'S'
S'T'
S'U'
S'V'
S'W'
S'X'
S'Y'
S'Z'
S'bracketleft'

StartChar: A
Encoding: 65 65 1
Width: 1089
VWidth: 0
Flags: HW
LayerCount: 2
Fore
SplineSet
783 420 m 1
 328 420 l 1
 559 1214 l 1
 783 420 l 1
477 1284 m 1
 77 0 l 1
 198 0 l 1
 298 328 l 1
 814 328 l 1
 911 0 l 1
 1022 0 l 1
 640 1284 l 1
 477 1284 l 1
EndSplineSet
EndChar

StartChar: AE
Encoding: 198 198 2
Width: 1247
VWidth: 0
Flags: HW
LayerCount: 2
Fore
SplineSet
594 1262 m 1
 617 1262 l 1
 652 442 l 1
 339 442 l 1
 594 1262 l 1
513 1374 m 1
 75 0 l 1
 201 0 l 1
 304 328 l 1
 657 328 l 1
 675 0 l 1
 1178 0 l 1
 1169 111 l 1
 789 111 l 1
 761 649 l 1
 1102 649 l 1
 1098 760 l 1
 756 760 l 1
 734 1262 l 1
 1126 1262 l 1
 1132 1374 l 1
 513 1374 l 1
EndSplineSet
EndChar

StartChar: Aacute
Encoding: 193 193 3
Width: 1099
VWidth: 0
Flags: HW
LayerCount: 2
Fore
SplineSet
568 1268 m 1
 784 440 l 1
 323 440 l 1
 532 1214 l 1
 568 1268 l 1
469 1374 m 1
 77 0 l 1
 200 0 l 1
 292 328 l 1
 816 328 l 1
 906 0 l 1
 1032 0 l 1
 648 1374 l 1
 469 1374 l 1
388 1632 m 1
 436 1563 l 1
 786 1786 l 1
 710 1874 l 1
 388 1632 l 1
EndSplineSet
EndChar

StartChar: Acircumflex
Encoding: 194 194 4
Width: 1099
VWidth: 0
Flags: HW
LayerCount: 2
Fore
SplineSet
568 1268 m 1
 784 440 l 1
 323 440 l 1
 532 1214 l 1
 568 1268 l 1
469 1374 m 1
 77 0 l 1
 200 0 l 1
 279 328 l 1
 816 328 l 1
 906 0 l 1
 1032 0 l 1
 648 1374 l 1
 469 1374 l 1
559 1761 m 1
 700 1548 l 1
 814 1548 l 1
 603 1837 l 1
 512 1837 l 1
 304 1548 l 1
 418 1548 l 1
 559 1761 l 1
EndSplineSet
EndChar

StartChar: Adieresis
Encoding: 196 196 5
Width: 1099
VWidth: 0
Flags: HW
LayerCount: 2
Fore
SplineSet
568 1268 m 1
 784 440 l 1
 323 440 l 1
 532 1214 l 1
 568 1268 l 1
469 1374 m 1
 77 0 l 1
 200 0 l 1
 292 328 l 1
 816 328 l 1
 906 0 l 1
 1032 0 l 1
 648 1374 l 1
 469 1374 l 1
302 1698 m 0
 302 1648 326 1616 371 1616 c 0
 420 1616 445 1646 445 1698 c 0
 445 1748 419 1780 371 1780 c 0
 327 1780 302 1746 302 1698 c 0
663 1698 m 0
 663 1648 690 1616 735 1616 c 0
 781 1616 809 1649 809 1698 c 0
 809 1747 782 1780 735 1780 c 0
 688 1780 663 1747 663 1698 c 0
EndSplineSet
EndChar

StartChar: Agrave
Encoding: 192 192 6
Width: 1099
VWidth: 0
Flags: HW
LayerCount: 2
Fore
SplineSet
568 1268 m 1
 784 440 l 1
 323 440 l 1
 532 1214 l 1
 568 1268 l 1
469 1374 m 1
 77 0 l 1
 200 0 l 1
 331 328 l 1
 816 328 l 1
 906 0 l 1
 1032 0 l 1
 648 1374 l 1
 469 1374 l 1
742 1632 m 1
 418 1876 l 1
 342 1788 l 1
 694 1565 l 1
 742 1632 l 1
EndSplineSet
EndChar

StartChar: Aring
Encoding: 197 197 7
Width: 1099
VWidth: 0
Flags: HW
LayerCount: 2
Fore
SplineSet
568 1268 m 1
 784 440 l 1
 323 440 l 1
 532 1214 l 1
 568 1268 l 1
469 1374 m 1
 77 0 l 1
 200 0 l 1
 292 328 l 1
 816 328 l 1
 906 0 l 1
 1032 0 l 1
 648 1374 l 1
 469 1374 l 1
552 1513 m 0
 658 1513 731 1582 731 1698 c 0
 731 1814 659 1880 554 1880 c 0
 449 1880 377 1814 377 1698 c 0
 377 1581 447 1513 552 1513 c 0
554 1804 m 0
 620 1804 656 1769 656 1698 c 0
 656 1629 617 1591 554 1591 c 0
 490 1591 450 1629 450 1698 c 0
 450 1769 488 1804 554 1804 c 0
EndSplineSet
EndChar

StartChar: Atilde
Encoding: 195 195 8
Width: 1099
VWidth: 0
Flags: HW
LayerCount: 2
Fore
SplineSet
568 1268 m 1
 784 440 l 1
 323 440 l 1
 532 1214 l 1
 568 1268 l 1
469 1374 m 1
 77 0 l 1
 200 0 l 1
 292 328 l 1
 816 328 l 1
 906 0 l 1
 1032 0 l 1
 648 1374 l 1
 469 1374 l 1
281 1679 m 1
 350 1632 l 1
 368 1657 386 1677 402 1692 c 0
 418 1707 433 1715 448 1715 c 0
 459 1715 474 1710 492 1699 c 0
 510 1688 530 1676 550 1663 c 1
 584 1643 631 1612 678 1612 c 0
 704 1612 730 1622 757 1643 c 0
 784 1664 808 1698 828 1746 c 1
 764 1791 l 1
 746 1764 728 1744 713 1730 c 0
 698 1716 683 1709 670 1709 c 0
 660 1709 647 1714 629 1724 c 0
 612 1734 593 1745 573 1758 c 1
 539 1778 492 1808 446 1808 c 0
 418 1808 389 1798 359 1778 c 0
 330 1758 303 1724 278 1675 c 1
 281 1679 l 1
EndSplineSet
EndChar

StartChar: B
Encoding: 66 66 9
Width: 1044
VWidth: 0
Flags: HW
LayerCount: 2
Fore
SplineSet
266 723 m 1
 266 1184 l 1
 485 1184 l 2
 682 1184 777 1139 777 971 c 0
 777 776 658 723 501 723 c 2
 266 723 l 1
816 381 m 1
 816 140 675 100 465 100 c 2
 268 100 l 1
 268 628 l 1
 509 628 l 2
 696 628 817 570 816 381 c 1
676 682 m 1
 815 720 894 804 894 971 c 0
 894 1229 746 1284 461 1284 c 2
 150 1284 l 1
 150 0 l 1
 458 0 l 2
 765 0 937 61 937 377 c 0
 937 567 839 659 676 682 c 1
EndSplineSet
EndChar

StartChar: C
Encoding: 67 67 10
Width: 999
VWidth: 0
Flags: HW
LayerCount: 2
Fore
SplineSet
220 640 m 0
 220 1069 332 1208 562 1208 c 0
 650 1208 719 1188 782 1162 c 1
 782 965 l 1
 893 965 l 1
 893 1223 l 1
 797 1267 690 1308 555 1308 c 0
 191 1308 99 1003 99 643 c 0
 99 172 275 -16 549 -16 c 0
 658 -16 783 13 918 67 c 1
 884 158 l 1
 756 110 647 83 556 83 c 0
 332 83 220 244 220 640 c 0
EndSplineSet
EndChar

StartChar: Ccedilla
Encoding: 199 199 11
Width: 1017
VWidth: 0
Flags: HW
LayerCount: 2
Fore
SplineSet
936 133 m 1
 881 231 l 1
 844 186 803 151 752 134 c 1
 704 112 644 95 573 95 c 0
 440 95 352 153 302 251 c 1
 251 355 228 504 228 685 c 0
 228 894 252 1063 328 1165 c 1
 377 1234 459 1276 574 1276 c 0
 659 1276 728 1254 781 1229 c 1
 796 1172 808 1103 814 1032 c 1
 927 1057 l 1
 918 1149 902 1234 892 1317 c 1
 801 1358 702 1395 571 1395 c 0
 198 1395 101 1093 101 676 c 0
 101 436 140 234 237 116 c 1
 306 24 419 -28 571 -28 c 0
 682 -28 765 3 844 34 c 1
 883 54 911 84 934 131 c 1
 936 133 l 1
536 -121 m 1
 540 -107 542 -95 545 -82 c 1
 510 -82 475 -86 444 -92 c 1
 443 -188 l 1
 468 -191 489 -195 510 -202 c 1
 571 -202 610 -221 610 -288 c 0
 610 -345 580 -376 527 -376 c 2
 508 -376 l 1
 475 -373 446 -368 422 -355 c 1
 407 -435 l 1
 445 -451 479 -461 524 -464 c 1
 537 -467 551 -464 566 -464 c 1
 650 -453 705 -388 705 -284 c 0
 705 -174 633 -122 536 -122 c 1
 536 -121 l 1
EndSplineSet
EndChar

StartChar: D
Encoding: 68 68 12
Width: 1085
VWidth: 0
Flags: HW
LayerCount: 2
Fore
SplineSet
150 0 m 1
 423 0 l 2
 841 0 972 237 972 637 c 0
 972 1097 840 1284 423 1284 c 2
 150 1284 l 1
 150 0 l 1
267 1184 m 1
 423 1184 l 2
 799 1184 852 989 852 637 c 0
 852 323 799 100 423 100 c 2
 267 100 l 1
 267 1184 l 1
EndSplineSet
EndChar

StartChar: Delta
Encoding: 8710 8710 13
Width: 952
VWidth: 0
Flags: HW
LayerCount: 2
Fore
SplineSet
905 0 m 1
 575 1339 l 1
 399 1339 l 1
 48 0 l 1
 905 0 l 1
181 102 m 1
 474 1245 l 1
 498 1245 l 1
 773 102 l 1
 181 102 l 1
EndSplineSet
EndChar

StartChar: E
Encoding: 69 69 14
Width: 920
VWidth: 0
Flags: HW
LayerCount: 2
Fore
SplineSet
150 1284 m 1
 150 0 l 1
 829 0 l 1
 813 100 l 1
 268 100 l 1
 268 649 l 1
 769 649 l 1
 769 745 l 1
 268 745 l 1
 268 1184 l 1
 803 1184 l 1
 825 1284 l 1
 150 1284 l 1
EndSplineSet
EndChar

StartChar: Eacute
Encoding: 201 201 15
Width: 920
VWidth: 0
Flags: HW
LayerCount: 2
Fore
SplineSet
152 1374 m 1
 152 0 l 1
 831 0 l 1
 825 115 l 1
 270 115 l 1
 270 649 l 1
 771 649 l 1
 771 762 l 1
 270 762 l 1
 270 1260 l 1
 822 1260 l 1
 827 1374 l 1
 152 1374 l 1
289 1632 m 1
 335 1563 l 1
 685 1786 l 1
 611 1874 l 1
 289 1632 l 1
EndSplineSet
EndChar

StartChar: Ecircumflex
Encoding: 202 202 16
Width: 920
VWidth: 0
Flags: HW
LayerCount: 2
Fore
SplineSet
152 1374 m 1
 152 0 l 1
 831 0 l 1
 825 115 l 1
 270 115 l 1
 270 649 l 1
 771 649 l 1
 771 762 l 1
 270 762 l 1
 270 1260 l 1
 822 1260 l 1
 827 1374 l 1
 152 1374 l 1
500 1761 m 1
 641 1548 l 1
 755 1548 l 1
 545 1837 l 1
 453 1837 l 1
 245 1548 l 1
 359 1548 l 1
 500 1761 l 1
EndSplineSet
EndChar

StartChar: Edieresis
Encoding: 203 203 17
Width: 920
VWidth: 0
Flags: HW
LayerCount: 2
Fore
SplineSet
152 1374 m 1
 152 0 l 1
 831 0 l 1
 825 115 l 1
 270 115 l 1
 270 649 l 1
 771 649 l 1
 771 762 l 1
 270 762 l 1
 270 1260 l 1
 822 1260 l 1
 827 1374 l 1
 152 1374 l 1
239 1698 m 0
 239 1648 266 1616 311 1616 c 0
 358 1616 383 1647 383 1698 c 0
 383 1748 358 1780 311 1780 c 0
 265 1780 239 1747 239 1698 c 0
602 1698 m 0
 602 1648 629 1616 674 1616 c 0
 720 1616 746 1649 746 1698 c 0
 746 1746 719 1780 674 1780 c 0
 627 1780 602 1747 602 1698 c 0
EndSplineSet
EndChar

StartChar: Egrave
Encoding: 200 200 18
Width: 920
VWidth: 0
Flags: HW
LayerCount: 2
Fore
SplineSet
152 1374 m 1
 152 0 l 1
 831 0 l 1
 825 115 l 1
 270 115 l 1
 270 649 l 1
 771 649 l 1
 771 762 l 1
 270 762 l 1
 270 1260 l 1
 822 1260 l 1
 827 1374 l 1
 152 1374 l 1
674 1632 m 1
 349 1876 l 1
 274 1788 l 1
 626 1565 l 1
 674 1632 l 1
EndSplineSet
EndChar

StartChar: Euro
Encoding: 8364 8364 19
Width: 1037
VWidth: 0
Flags: HW
LayerCount: 2
Fore
SplineSet
155 679 m 1
 155 597 l 1
 76 597 l 1
 76 499 l 1
 162 499 l 1
 192 192 303 -26 607 -26 c 0
 720 -26 816 0 893 30 c 1
 927 45 956 74 976 114 c 1
 922 204 l 1
 893 170 856 144 817 130 c 0
 751 108 676 90 588 97 c 1
 386 118 315 272 290 499 c 1
 725 499 l 1
 725 597 l 1
 285 597 l 1
 284 622 283 652 283 678 c 0
 283 701 283 727 285 747 c 1
 725 747 l 1
 725 843 l 1
 290 843 l 1
 313 1073 387 1246 616 1246 c 0
 689 1246 747 1230 800 1216 c 1
 844 1201 880 1175 909 1141 c 1
 968 1231 l 1
 949 1264 924 1291 896 1309 c 1
 812 1339 723 1366 610 1366 c 0
 309 1366 194 1151 165 844 c 1
 79 844 l 1
 79 748 l 1
 160 748 l 1
 158 728 158 702 158 679 c 1
 155 679 l 1
EndSplineSet
EndChar

StartChar: F
Encoding: 70 70 20
Width: 867
VWidth: 0
Flags: HW
LayerCount: 2
Fore
SplineSet
150 1284 m 1
 150 0 l 1
 267 0 l 1
 267 603 l 1
 734 603 l 1
 734 697 l 1
 267 697 l 1
 267 1184 l 1
 798 1184 l 5
 817 1284 l 1
 150 1284 l 1
EndSplineSet
EndChar

StartChar: G
Encoding: 71 71 21
Width: 1094
VWidth: 0
Flags: HW
LayerCount: 2
Fore
SplineSet
839 184 m 1
 857 39 l 1
 960 61 l 1
 960 666 l 1
 572 666 l 1
 572 551 l 1
 839 551 l 1
 839 184 l 1
220 652 m 0
 220 1048 332 1209 556 1209 c 0
 648.942073171 1209 760.268292683 1187.4 891 1149 c 1
 918 1245 l 1
 783 1285.98795181 658 1308 549 1308 c 0
 275 1308 99 1120 99 649 c 0
 99 289 191 -16 555 -16 c 0
 714 -16 837 13 951 58 c 1
 951 317 l 1
 839 317 l 1
 839 124 l 1
 758 101 674 84 562 84 c 0
 332 84 220 223 220 652 c 0
EndSplineSet
EndChar

StartChar: H
Encoding: 72 72 22
Width: 1127
VWidth: 0
Flags: HW
LayerCount: 2
Fore
SplineSet
150 1284 m 1
 150 0 l 1
 264 0 l 1
 264 615 l 1
 862 615 l 1
 862 0 l 1
 976 0 l 1
 976 1284 l 1
 862 1284 l 1
 862 720 l 1
 264 720 l 1
 264 1284 l 1
 150 1284 l 1
EndSplineSet
EndChar

StartChar: I
Encoding: 73 73 23
Width: 671
VWidth: 0
Flags: HW
LayerCount: 2
Fore
SplineSet
99 0 m 1
 99 95 l 1
 293 95 l 1
 293 1189 l 1
 99 1189 l 1
 99 1284 l 1
 591 1284 l 1
 591 1189 l 1
 407 1189 l 1
 407 95 l 1
 595 95 l 1
 595 0 l 1
 99 0 l 1
EndSplineSet
EndChar

StartChar: Iacute
Encoding: 205 205 24
Width: 671
VWidth: 0
Flags: HW
LayerCount: 2
Fore
SplineSet
101 1374 m 1
 101 1272 l 1
 293 1272 l 1
 293 102 l 1
 101 102 l 1
 101 0 l 1
 593 0 l 1
 593 102 l 1
 411 102 l 1
 411 1272 l 1
 595 1272 l 1
 597 1374 l 1
 101 1374 l 1
153 1632 m 1
 201 1563 l 1
 551 1786 l 1
 476 1874 l 1
 153 1632 l 1
EndSplineSet
EndChar

StartChar: Icircumflex
Encoding: 206 206 25
Width: 666
VWidth: 0
Flags: HW
LayerCount: 2
Fore
SplineSet
98 1374 m 1
 98 1272 l 1
 290 1272 l 1
 290 102 l 1
 98 102 l 1
 98 0 l 1
 590 0 l 1
 590 102 l 1
 408 102 l 1
 408 1272 l 1
 592 1272 l 1
 594 1374 l 1
 98 1374 l 1
349 1761 m 1
 490 1548 l 1
 604 1548 l 1
 395 1837 l 1
 303 1837 l 1
 93 1548 l 1
 209 1548 l 1
 349 1761 l 1
EndSplineSet
EndChar

StartChar: Idieresis
Encoding: 207 207 26
Width: 668
VWidth: 0
Flags: HW
LayerCount: 2
Fore
SplineSet
99 1374 m 1
 99 1272 l 1
 291 1272 l 1
 291 102 l 1
 99 102 l 1
 99 0 l 1
 591 0 l 1
 591 102 l 1
 409 102 l 1
 409 1272 l 1
 593 1272 l 1
 595 1374 l 1
 99 1374 l 1
96 1698 m 0
 96 1648 123 1616 168 1616 c 0
 214 1616 240 1647 240 1698 c 0
 240 1747 213 1780 168 1780 c 0
 122 1780 96 1747 96 1698 c 0
457 1698 m 0
 457 1648 483 1616 529 1616 c 0
 575 1616 602 1649 602 1698 c 0
 602 1747 576 1780 529 1780 c 0
 483 1780 457 1747 457 1698 c 0
EndSplineSet
EndChar

StartChar: Igrave
Encoding: 204 204 27
Width: 671
VWidth: 0
Flags: HW
LayerCount: 2
Fore
SplineSet
101 1374 m 1
 101 1272 l 1
 293 1272 l 1
 293 102 l 1
 101 102 l 1
 101 0 l 1
 593 0 l 1
 593 102 l 1
 411 102 l 1
 411 1272 l 1
 595 1272 l 1
 597 1374 l 1
 101 1374 l 1
539 1632 m 1
 214 1876 l 1
 140 1788 l 1
 490 1565 l 1
 539 1632 l 1
EndSplineSet
EndChar

StartChar: J
Encoding: 74 74 28
Width: 595
VWidth: 0
Flags: HW
LayerCount: 2
Fore
SplineSet
326 91 m 2
 326 -49 299 -139 179 -139 c 0
 128 -139 78 -128 31 -111 c 1
 15 -202 l 1
 75 -225 131 -234 183 -234 c 0
 359 -234 444 -108 444 91 c 2
 444 1284 l 1
 124 1284 l 1
 124 1182 l 1
 326 1182 l 1
 326 91 l 2
EndSplineSet
EndChar

StartChar: K
Encoding: 75 75 29
Width: 1007
VWidth: 0
Flags: HW
LayerCount: 2
Fore
SplineSet
949 0 m 1
 512 721 l 1
 937 1284 l 1
 799 1284 l 1
 406 764 l 1
 265 595 l 1
 265 1284 l 1
 150 1284 l 1
 150 0 l 1
 265 0 l 1
 265 480 l 1
 425 658 l 1
 820 -1 l 1
 949 0 l 1
EndSplineSet
EndChar

StartChar: L
Encoding: 76 76 30
Width: 860
VWidth: 0
Flags: HW
LayerCount: 2
Fore
SplineSet
150 0 m 1
 787 0 l 1
 767 100 l 5
 265 100 l 1
 265 1284 l 1
 150 1284 l 1
 150 0 l 1
EndSplineSet
EndChar

StartChar: M
Encoding: 77 77 31
Width: 1196
VWidth: 0
Flags: W
LayerCount: 2
Fore
SplineSet
906 1284 m 1
 602 433 l 1
 290 1284 l 1
 150 1284 l 1
 150 0 l 1
 262 0 l 1
 262 1066 l 1
 524 350 l 1
 670 350 l 1
 933 1064 l 1
 933 0 l 1
 1045 0 l 1
 1045 1284 l 1
 906 1284 l 1
EndSplineSet
EndChar

StartChar: N
Encoding: 78 78 32
Width: 1143
VWidth: 0
Flags: HW
LayerCount: 2
Fore
SplineSet
150 1284 m 1
 150 0 l 1
 264 0 l 1
 264 1105 l 1
 865 0 l 1
 992 0 l 1
 992 1284 l 1
 877 1284 l 1
 877 197 l 1
 282 1284 l 1
 150 1284 l 1
EndSplineSet
EndChar

StartChar: Ntilde
Encoding: 209 209 33
Width: 1141
VWidth: 0
Flags: HW
LayerCount: 2
Fore
SplineSet
152 1374 m 1
 152 0 l 1
 267 0 l 1
 267 1167 l 1
 270 1167 l 1
 383 971 l 1
 530 713 679 461 827 205 c 1
 864 0 l 1
 989 0 l 1
 989 1374 l 1
 873 1374 l 1
 873 352 l 1
 870 352 l 1
 677 696 477 1033 281 1374 c 1
 152 1374 l 1
298 1679 m 1
 365 1632 l 1
 384 1657 401 1677 416 1692 c 0
 431 1707 447 1715 462 1715 c 0
 474 1715 488 1710 506 1699 c 0
 524 1688 544 1676 565 1663 c 0
 599 1643 647 1612 693 1612 c 0
 720 1612 747 1622 773 1643 c 0
 800 1664 823 1698 844 1746 c 1
 779 1791 l 1
 760 1764 744 1744 729 1730 c 0
 715 1716 701 1709 687 1709 c 0
 677 1709 664 1714 647 1724 c 0
 629 1734 611 1745 590 1758 c 0
 556 1778 508 1808 461 1808 c 0
 377 1808 330 1740 299 1675 c 1
 298 1679 l 1
EndSplineSet
EndChar

StartChar: O
Encoding: 79 79 34
Width: 1092
VWidth: 0
Flags: HW
LayerCount: 2
Fore
SplineSet
539 84 m 0
 324 84 217 236 217 645 c 0
 217 1058 327 1208 539 1208 c 0
 751 1208 861 1058 861 645 c 0
 861 236 754 84 539 84 c 0
539 -16 m 0
 895 -16 977 279 977 648 c 0
 977 1017 895 1308 539 1308 c 0
 183 1308 101 1017 101 648 c 0
 101 279 183 -16 539 -16 c 0
EndSplineSet
EndChar

StartChar: OE
Encoding: 338 338 35
Width: 1262
VWidth: 0
Flags: HW
LayerCount: 2
Fore
SplineSet
667 1257 m 1
 667 113 l 1
 647 111 620 110 597 109 c 0
 464 103 368 148 315 225 c 1
 246 334 226 494 226 695 c 1
 227 867 243 1001 290 1103 c 0
 342 1217 461 1274 624 1263 c 1
 638 1261 656 1260 667 1256 c 1
 667 1257 l 1
565 1381 m 0
 200 1381 101 1103 101 697 c 0
 101 335 177 45 464 3 c 1
 520 -8 594 -1 654 -1 c 2
 1179 -1 l 1
 1173 112 l 1
 783 112 l 1
 783 648 l 1
 1120 648 l 1
 1120 759 l 1
 783 759 l 1
 783 1261 l 1
 1168 1261 l 1
 1175 1373 l 1
 707 1373 l 2
 662 1373 613 1381 565 1381 c 0
EndSplineSet
EndChar

StartChar: Oacute
Encoding: 211 211 36
Width: 1118
VWidth: 0
Flags: HW
LayerCount: 2
Fore
SplineSet
878 688 m 1
 878 491 861 330 797 220 c 1
 754 141 670 93 552 93 c 0
 495 93 447 103 409 123 c 0
 312 173 277 249 251 388 c 0
 236 472 227 581 227 714 c 0
 227 823 235 913 249 985 c 0
 285 1162 361 1277 553 1277 c 0
 838 1277 877 1008 877 687 c 1
 878 688 l 1
551 -28 m 0
 689 -28 789 20 858 95 c 1
 973 229 1002 463 1002 728 c 0
 1002 917 974 1075 911 1191 c 1
 849 1318 731 1396 553 1396 c 0
 191 1396 101 1111 101 697 c 0
 101 286 184 -28 551 -28 c 0
372 1631 m 1
 423 1562 l 1
 773 1785 l 1
 699 1873 l 1
 372 1631 l 1
EndSplineSet
EndChar

StartChar: Ocircumflex
Encoding: 212 212 37
Width: 1118
VWidth: 0
Flags: HW
LayerCount: 2
Fore
SplineSet
878 688 m 1
 878 491 861 330 797 220 c 1
 754 141 670 93 552 93 c 0
 495 93 447 103 409 123 c 0
 312 173 277 249 251 388 c 0
 236 472 227 581 227 714 c 0
 227 823 235 913 249 985 c 0
 285 1162 361 1277 553 1277 c 0
 838 1277 877 1008 877 687 c 1
 878 688 l 1
551 -28 m 0
 689 -28 789 20 858 95 c 1
 973 229 1002 463 1002 728 c 0
 1002 917 974 1075 911 1191 c 1
 849 1318 731 1396 553 1396 c 0
 191 1396 101 1111 101 697 c 0
 101 286 184 -28 551 -28 c 0
557 1760 m 1
 697 1547 l 1
 812 1547 l 1
 601 1836 l 1
 509 1836 l 1
 300 1547 l 1
 415 1547 l 1
 557 1760 l 1
EndSplineSet
EndChar

StartChar: Odieresis
Encoding: 214 214 38
Width: 1118
VWidth: 0
Flags: HW
LayerCount: 2
Fore
SplineSet
878 688 m 1
 878 491 861 330 797 220 c 1
 754 141 670 93 552 93 c 0
 495 93 447 103 409 123 c 0
 312 173 277 249 251 388 c 0
 236 472 227 581 227 714 c 0
 227 823 235 913 249 985 c 0
 285 1162 361 1277 553 1277 c 0
 838 1277 877 1008 877 687 c 1
 878 688 l 1
551 -28 m 0
 689 -28 789 20 858 95 c 1
 973 229 1002 463 1002 728 c 0
 1002 917 974 1075 911 1191 c 1
 849 1318 731 1396 553 1396 c 0
 191 1396 101 1111 101 697 c 0
 101 286 184 -28 551 -28 c 0
299 1697 m 0
 299 1647 324 1615 369 1615 c 0
 417 1615 443 1645 443 1697 c 0
 443 1747 416 1779 369 1779 c 0
 325 1779 299 1745 299 1697 c 0
660 1697 m 0
 660 1646 688 1615 734 1615 c 0
 778 1615 806 1649 806 1697 c 0
 806 1745 779 1779 734 1779 c 0
 688 1779 660 1747 660 1697 c 0
EndSplineSet
EndChar

StartChar: Ograve
Encoding: 210 210 39
Width: 1118
VWidth: 0
Flags: HW
LayerCount: 2
Fore
SplineSet
878 688 m 1
 878 491 861 330 797 220 c 1
 754 141 670 93 552 93 c 0
 495 93 447 103 409 123 c 0
 312 173 277 249 251 388 c 0
 236 472 227 581 227 714 c 0
 227 823 235 913 249 985 c 0
 285 1162 361 1277 553 1277 c 0
 838 1277 877 1008 877 687 c 1
 878 688 l 1
551 -28 m 0
 689 -28 789 20 858 95 c 1
 973 229 1002 463 1002 728 c 0
 1002 917 974 1075 911 1191 c 1
 849 1318 731 1396 553 1396 c 0
 191 1396 101 1111 101 697 c 0
 101 286 184 -28 551 -28 c 0
754 1631 m 1
 430 1875 l 1
 356 1787 l 1
 706 1564 l 1
 754 1631 l 1
EndSplineSet
EndChar

StartChar: Omega
Encoding: 937 937 40
Width: 1053
VWidth: 0
Flags: HW
LayerCount: 2
Fore
SplineSet
805 659 m 1
 805 628 803 594 800 558 c 0
 784 360 728 156 580 102 c 1
 580 0 l 1
 899 0 l 1
 899 102 l 1
 716 102 l 1
 750 128 779 158 803 192 c 0
 889 311 913 488 913 710 c 0
 913 1075 849 1363 526 1363 c 0
 188 1363 139 1056 139 675 c 0
 139 402 189 215 336 103 c 1
 336 93 l 1
 165 93 l 1
 165 1 l 1
 473 1 l 1
 473 103 l 1
 435 117 402 140 376 173 c 0
 302 266 266 411 251 570 c 1
 246 763 l 1
 246 1020 294 1256 526 1256 c 0
 792 1256 804 956 804 660 c 1
 805 659 l 1
EndSplineSet
EndChar

StartChar: Oslash
Encoding: 216 216 41
Width: 870
VWidth: 0
Flags: HW
LayerCount: 2
Fore
SplineSet
817 1280 m 1
 816 1279 815 1276 815 1271 c 0
 812 1232 807 1200 799 1161 c 1
 787 1137 777 1115 764 1092 c 1
 698 1088 640 1070 575 1049 c 1
 544 1036 514 1022 487 1007 c 0
 325 917 257 723 196 504 c 1
 167 425 148 361 140 312 c 0
 132 263 134 223 148 193 c 1
 132 160 114 128 99 94 c 1
 100 96 100 99 100 104 c 0
 100 145 107 177 114 219 c 1
 127 244 138 269 152 294 c 1
 216 288 276 304 336 323 c 0
 368 334 399 347 427 363 c 0
 592 455 666 662 725 890 c 1
 754 967 772 1029 780 1077 c 0
 788 1125 785 1163 772 1192 c 1
 789 1221 802 1250 819 1279 c 1
 817 1280 l 1
112 437 m 1
 109 418 108 403 109 392 c 0
 111 361 123 357 134 379 c 1
 141 407 158 428 176 450 c 1
 203 502 236 542 278 583 c 1
 347 643 403 727 451 800 c 1
 518 895 591 978 650 1084 c 1
 664 1112 675 1135 685 1153 c 0
 694 1169 722 1226 737 1197 c 1
 712 1176 681 1156 642 1137 c 0
 603 1118 556 1093 499 1062 c 0
 419 1017 353 952 301 878 c 0
 215 755 149 618 114 436 c 1
 112 437 l 1
390 8 m 1
 437 55 477 112 511 178 c 0
 617 387 666 663 692 965 c 1
 703 1060 713 1145 700 1229 c 1
 290 80 l 1
 307 28 341 4 390 8 c 1
EndSplineSet
EndChar

StartChar: Otilde
Encoding: 213 213 42
Width: 1118
VWidth: 0
Flags: HW
LayerCount: 2
Fore
SplineSet
878 688 m 1
 878 491 861 330 797 220 c 1
 754 141 670 93 552 93 c 0
 495 93 447 103 409 123 c 0
 312 173 277 249 251 388 c 0
 236 472 227 581 227 714 c 0
 227 823 235 913 249 985 c 0
 285 1162 361 1277 553 1277 c 0
 838 1277 877 1008 877 687 c 1
 878 688 l 1
551 -28 m 0
 689 -28 789 20 858 95 c 1
 973 229 1002 463 1002 728 c 0
 1002 917 974 1075 911 1191 c 1
 849 1318 731 1396 553 1396 c 0
 191 1396 101 1111 101 697 c 0
 101 286 184 -28 551 -28 c 0
277 1678 m 1
 343 1631 l 1
 362 1656 379 1676 395 1691 c 0
 411 1706 426 1714 442 1714 c 0
 452 1714 467 1709 485 1698 c 0
 503 1687 523 1675 544 1662 c 0
 578 1642 625 1611 672 1611 c 0
 698 1611 724 1621 751 1642 c 0
 778 1663 803 1697 823 1745 c 1
 758 1790 l 1
 740 1763 723 1743 709 1729 c 0
 695 1715 681 1708 668 1708 c 0
 658 1708 644 1713 627 1723 c 0
 610 1733 590 1744 569 1757 c 0
 533 1778 486 1807 438 1807 c 0
 354 1807 307 1739 276 1674 c 1
 277 1678 l 1
EndSplineSet
EndChar

StartChar: P
Encoding: 80 80 43
Width: 1003
VWidth: 0
Flags: HW
LayerCount: 2
Fore
SplineSet
787 900 m 0
 787 639 640 622 361 622 c 2
 264 622 l 1
 264 1184 l 1
 387 1184 l 2
 655 1184 787 1157 787 900 c 0
902 902 m 0
 902 1231 706 1284 365 1284 c 2
 150 1284 l 1
 150 0 l 1
 264 0 l 1
 264 522 l 1
 384 522 l 2
 714 522 902 585 902 902 c 0
EndSplineSet
EndChar

StartChar: Q
Encoding: 81 81 44
Width: 1093
VWidth: 0
Flags: HW
LayerCount: 2
Fore
SplineSet
936 -104 m 1
 610 351 l 1
 538 295 l 1
 865 -162 l 1
 936 -104 l 1
EndSplineSet
Refer: 34 79 N 1 0 0 1 -6 0 2
EndChar

StartChar: R
Encoding: 82 82 45
Width: 1041
VWidth: 0
Flags: HW
LayerCount: 2
Fore
SplineSet
980 10 m 1
 828.50755287 214 738.223564955 426 629 640 c 1
 528 622 l 1
 627.987261146 406 719.038216561 193 862 -12 c 1
 980 10 l 1
787 920 m 0
 787 677 637 662 351 662 c 2
 264 662 l 1
 264 1184 l 1
 377 1184 l 2
 652 1184 787 1159 787 920 c 0
902 922 m 0
 902 1233 702 1284 355 1284 c 2
 150 1284 l 1
 150 0 l 1
 264 0 l 1
 264 567 l 1
 374 567 l 2
 710 567 902 621 902 922 c 0
EndSplineSet
EndChar

StartChar: S
Encoding: 83 83 46
Width: 974
VWidth: 0
Flags: W
HStem: -17 101<215.792 644.377> 1208 100<326.488 767.581>
VStem: 110 120<834.732 1114.9> 752 120<186.949 486.726>
LayerCount: 2
Fore
SplineSet
820 1145 m 1
 841 1239 l 1
 749 1281 629 1308 513 1308 c 0
 305 1308 110 1221 110 972 c 0
 110 724 290 666 482 609 c 0
 638 562 752 518 752 336 c 0
 752 148 615 84 459 84 c 0
 345 84 221 118 132 165 c 1
 107 68 l 1
 204 16 334 -17 459 -17 c 0
 672 -17 872 79 872 337 c 0
 872 604 709 654 514 718 c 0
 370 765 230 795 230 972 c 0
 230 1153 364 1208 513 1208 c 0
 624 1208 742 1177 820 1145 c 1
EndSplineSet
EndChar

StartChar: T
Encoding: 84 84 47
Width: 911
VWidth: 0
Flags: HW
LayerCount: 2
Fore
SplineSet
50 1284 m 1
 50 1184 l 1
 394 1184 l 1
 394 0 l 1
 512 0 l 1
 512 1184 l 1
 861 1184 l 1
 861 1284 l 1
 50 1284 l 1
EndSplineSet
EndChar

StartChar: U
Encoding: 85 85 48
Width: 1087
VWidth: 0
Flags: HW
LayerCount: 2
Fore
SplineSet
539 -16 m 0
 951 -16 951 324 951 675 c 2
 951 1284 l 1
 832 1284 l 1
 832 675 l 2
 832 341 832 84 539 84 c 0
 246 84 246 341 246 675 c 2
 246 1284 l 1
 127 1284 l 1
 127 675 l 2
 127 324 127 -16 539 -16 c 0
EndSplineSet
EndChar

StartChar: Uacute
Encoding: 218 218 49
Width: 1099
VWidth: 0
Flags: HW
LayerCount: 2
Fore
SplineSet
547 90 m 1
 364 90 271 177 263 367 c 1
 256 466 252 560 252 674 c 2
 252 1374 l 1
 133 1374 l 1
 133 666 l 2
 133 501 135 337 170 213 c 0
 217 49 350 -30 545 -30 c 0
 694 -30 812 19 875 114 c 1
 893 139 907 170 918 207 c 0
 956 333 961 496 961 666 c 2
 961 1372 l 1
 840 1372 l 1
 840 469 l 2
 840 222 769 88 549 88 c 1
 547 90 l 1
374 1630 m 1
 422 1561 l 1
 772 1784 l 1
 699 1872 l 1
 374 1630 l 1
EndSplineSet
EndChar

StartChar: Ucircumflex
Encoding: 219 219 50
Width: 1099
VWidth: 0
Flags: HW
LayerCount: 2
Fore
SplineSet
547 90 m 1
 364 90 271 177 263 367 c 1
 256 466 252 560 252 674 c 2
 252 1374 l 1
 133 1374 l 1
 133 666 l 2
 133 501 135 337 170 213 c 0
 217 49 350 -30 545 -30 c 0
 694 -30 812 19 875 114 c 1
 893 139 907 170 918 207 c 0
 956 333 961 496 961 666 c 2
 961 1372 l 1
 840 1372 l 1
 840 469 l 2
 840 222 769 88 549 88 c 1
 547 90 l 1
551 1759 m 1
 691 1546 l 1
 806 1546 l 1
 597 1835 l 1
 505 1835 l 1
 295 1546 l 1
 411 1546 l 1
 551 1759 l 1
EndSplineSet
EndChar

StartChar: Udieresis
Encoding: 220 220 51
Width: 1099
VWidth: 0
Flags: HW
LayerCount: 2
Fore
SplineSet
547 90 m 1
 364 90 271 177 263 367 c 1
 256 466 252 560 252 674 c 2
 252 1374 l 1
 133 1374 l 1
 133 666 l 2
 133 501 135 337 170 213 c 0
 217 49 350 -30 545 -30 c 0
 694 -30 812 19 875 114 c 1
 893 139 907 170 918 207 c 0
 956 333 961 496 961 666 c 2
 961 1372 l 1
 840 1372 l 1
 840 469 l 2
 840 222 769 88 549 88 c 1
 547 90 l 1
293 1696 m 0
 293 1646 320 1614 365 1614 c 0
 412 1614 437 1645 437 1696 c 0
 437 1746 412 1778 365 1778 c 0
 321 1778 293 1744 293 1696 c 0
656 1696 m 0
 656 1646 682 1614 728 1614 c 0
 774 1614 801 1647 801 1696 c 0
 801 1744 773 1778 728 1778 c 0
 682 1778 656 1745 656 1696 c 0
EndSplineSet
EndChar

StartChar: Ugrave
Encoding: 217 217 52
Width: 1099
VWidth: 0
Flags: HW
LayerCount: 2
Fore
SplineSet
547 90 m 1
 364 90 271 177 263 367 c 1
 256 466 252 560 252 674 c 2
 252 1374 l 1
 133 1374 l 1
 133 666 l 2
 133 501 135 337 170 213 c 0
 217 49 350 -30 545 -30 c 0
 694 -30 812 19 875 114 c 1
 893 139 907 170 918 207 c 0
 956 333 961 496 961 666 c 2
 961 1372 l 1
 840 1372 l 1
 840 469 l 2
 840 222 769 88 549 88 c 1
 547 90 l 1
736 1630 m 1
 411 1874 l 1
 337 1786 l 1
 687 1563 l 1
 736 1630 l 1
EndSplineSet
EndChar

StartChar: V
Encoding: 86 86 53
Width: 950
VWidth: 0
Flags: HW
LayerCount: 2
Fore
SplineSet
554 0 m 1
 620 244 683 479 902 1285 c 1
 781 1285 l 1
 676 875 585 524 475 114 c 1
 365 524 274 875 169 1285 c 1
 48 1285 l 1
 267 479 330 244 396 0 c 1
 554 0 l 1
EndSplineSet
EndChar

StartChar: W
Encoding: 87 87 54
Width: 1245
VWidth: 0
Flags: HW
LayerCount: 2
Fore
SplineSet
369 101 m 1
 316 475 l 1
 185 1373 l 1
 65 1373 l 1
 281 0 l 5
 453 0 l 5
 622 794 l 1
 626 794 l 1
 791 0 l 5
 966 0 l 5
 1180 1373 l 1
 1063 1373 l 1
 930 474 l 1
 878 100 l 1
 683 970 l 1
 567 970 l 1
 369 101 l 1
EndSplineSet
EndChar

StartChar: X
Encoding: 88 88 55
Width: 959
VWidth: 0
Flags: HW
LayerCount: 2
Fore
SplineSet
488 765 m 5
 236 1284 l 5
 92 1284 l 5
 408 658 l 5
 77 -1 l 1
 218 -1 l 1
 479 546 l 5
 482 546 l 5
 757 -1 l 1
 904 -1 l 1
 559 657 l 5
 876 1284 l 5
 738 1284 l 5
 488 765 l 5
EndSplineSet
EndChar

StartChar: Y
Encoding: 89 89 56
Width: 952
VWidth: 0
Flags: HW
LayerCount: 2
Fore
SplineSet
417 586 m 1
 417 0 l 1
 535 0 l 1
 535 588 l 1
 921 1284 l 5
 785 1284 l 5
 479 711 l 1
 477 711 l 1
 173 1284 l 5
 37 1284 l 5
 418 586 l 1
 417 586 l 1
EndSplineSet
EndChar

StartChar: Ydieresis
Encoding: 376 376 57
Width: 950
VWidth: 0
Flags: HW
LayerCount: 2
Fore
SplineSet
921 1374 m 1
 787 1374 l 1
 711 1201 616 1012 541 840 c 1
 482 711 l 1
 478 711 l 1
 421 840 l 2
 345 1012 254 1200 176 1374 c 1
 36 1374 l 1
 159 1112 295 845 419 586 c 1
 419 0 l 1
 539 0 l 1
 539 588 l 1
 659 849 797 1114 920 1375 c 1
 921 1374 l 1
223 1699 m 0
 223 1649 249 1617 295 1617 c 0
 342 1617 369 1648 369 1699 c 0
 369 1749 343 1781 295 1781 c 0
 250 1781 223 1747 223 1699 c 0
586 1699 m 0
 586 1649 613 1617 658 1617 c 0
 704 1617 732 1650 732 1699 c 0
 732 1748 705 1781 658 1781 c 0
 611 1781 586 1748 586 1699 c 0
EndSplineSet
EndChar

StartChar: Z
Encoding: 90 90 58
Width: 945
VWidth: 0
Flags: HW
LayerCount: 2
Fore
SplineSet
125 1284 m 1
 125 1167 l 1
 710 1167 l 1
 96 98 l 1
 117 0 l 1
 869 0 l 1
 869 115 l 1
 241 115 l 1
 841 1176 l 1
 825 1284 l 1
 125 1284 l 1
EndSplineSet
EndChar

StartChar: a
Encoding: 97 97 59
Width: 926
VWidth: 0
Flags: W
HStem: -16 95<258.91 575.498> 480 97<292.48 663> 905 95<185.185 592.495>
VStem: 90 116<130.393 405.537> 665 110<146.607 209 577 817.596>
LayerCount: 2
Fore
SplineSet
182 858 m 1
 291 886 390 905 462 905 c 0
 594 905 663 837 663 577 c 1
 332 577 90 577 90 278 c 0
 90 69 221 -16 376 -16 c 0
 477 -16 589 21 680 84 c 1
 701 35 720 -15 720 -15 c 1
 824 12 l 1
 824 12 775 153 775 209 c 2
 775 623 l 2
 775 923 637 1000 467 1000 c 0
 368 1000 256 974 160 951 c 1
 182 858 l 1
206 275 m 0
 206 480 386 480 665 480 c 1
 665 169 l 1
 596 127 481 79 384 79 c 0
 286 79 206 127 206 275 c 0
EndSplineSet
EndChar

StartChar: aacute
Encoding: 225 225 60
Width: 918
VWidth: 0
Flags: HW
LayerCount: 2
Fore
SplineSet
426 588 m 1
 294 584 195 543 140 467 c 1
 108 420 90 364 90 278 c 0
 90 73 199 -21 388 -21 c 0
 419 -21 448 -17 477 -8 c 0
 552 15 624 58 670 109 c 1
 674 56 688 7 717 -20 c 1
 747 -17 773 -16 801 -10 c 1
 790 131 l 1
 773 148 774 168 774 208 c 2
 774 581 l 2
 774 723 766 829 717 900 c 1
 667 976 569 998 447 998 c 0
 308 998 181 967 121 876 c 1
 176 790 l 1
 197 821 227 844 264 855 c 0
 321 872 384 887 451 887 c 0
 510 887 548 881 582 862 c 1
 660 826 662 708 662 582 c 1
 581 582 512 586 424 586 c 1
 426 588 l 1
204 285 m 1
 204 310 205 331 210 349 c 0
 249 517 486 481 663 481 c 1
 663 246 l 1
 655 229 643 211 625 193 c 0
 574 141 493 90 399 90 c 0
 263 90 205 139 205 285 c 1
 204 285 l 1
255 1245 m 1
 308 1180 l 1
 631 1413 l 1
 552 1505 l 1
 255 1245 l 1
EndSplineSet
EndChar

StartChar: acircumflex
Encoding: 226 226 61
Width: 918
VWidth: 0
Flags: HW
LayerCount: 2
Fore
SplineSet
426 588 m 1
 294 584 195 543 140 467 c 1
 108 420 90 364 90 278 c 0
 90 73 199 -21 388 -21 c 0
 419 -21 448 -17 477 -8 c 0
 552 15 624 58 670 109 c 1
 674 56 688 7 717 -20 c 1
 747 -17 773 -16 801 -10 c 1
 790 131 l 1
 773 148 774 168 774 208 c 2
 774 581 l 2
 774 723 766 829 717 900 c 1
 667 976 569 998 447 998 c 0
 308 998 181 967 121 876 c 1
 176 790 l 1
 197 821 227 844 264 855 c 0
 321 872 384 887 451 887 c 0
 510 887 548 881 582 862 c 1
 660 826 662 708 662 582 c 1
 581 582 512 586 424 586 c 1
 426 588 l 1
204 285 m 1
 204 310 205 331 210 349 c 0
 249 517 486 481 663 481 c 1
 663 246 l 1
 655 229 643 211 625 193 c 0
 574 141 493 90 399 90 c 0
 263 90 205 139 205 285 c 1
 204 285 l 1
459 1438 m 1
 607 1180 l 1
 721 1180 l 1
 510 1514 l 1
 410 1514 l 1
 198 1180 l 1
 312 1180 l 1
 459 1438 l 1
EndSplineSet
EndChar

StartChar: adieresis
Encoding: 228 228 62
Width: 922
VWidth: 0
Flags: HW
LayerCount: 2
Fore
SplineSet
429 588 m 1
 297 584 198 543 143 467 c 1
 111 420 93 364 93 278 c 0
 93 73 202 -21 391 -21 c 0
 422 -21 451 -17 480 -8 c 0
 555 15 627 58 673 109 c 1
 677 56 691 7 720 -20 c 1
 750 -17 776 -16 804 -10 c 1
 793 131 l 1
 776 148 777 168 777 208 c 2
 777 581 l 2
 777 723 769 829 720 900 c 1
 670 976 572 998 450 998 c 0
 311 998 184 967 124 876 c 1
 179 790 l 1
 200 821 230 844 267 855 c 0
 324 872 387 887 454 887 c 0
 513 887 551 881 585 862 c 1
 663 826 665 708 665 582 c 1
 584 582 515 586 427 586 c 1
 429 588 l 1
207 285 m 1
 207 310 208 331 213 349 c 0
 252 517 489 481 666 481 c 1
 666 246 l 1
 658 229 646 211 628 193 c 0
 577 141 496 90 402 90 c 0
 266 90 208 139 208 285 c 1
 207 285 l 1
208 1329 m 0
 208 1279 234 1245 280 1245 c 0
 327 1245 351 1278 351 1329 c 0
 351 1379 328 1411 280 1411 c 0
 234 1411 208 1379 208 1329 c 0
571 1329 m 0
 571 1278 596 1245 643 1245 c 0
 689 1245 715 1280 715 1329 c 0
 715 1377 688 1411 643 1411 c 0
 596 1411 571 1378 571 1329 c 0
EndSplineSet
EndChar

StartChar: ae
Encoding: 230 230 63
Width: 1240
VWidth: 0
Flags: HW
LayerCount: 2
Fore
SplineSet
396 571 m 1
 327 569 272 557 231 535 c 0
 142 487 97 417 97 272 c 0
 97 231 101 195 109 165 c 0
 140 50 210 -23 344 -23 c 0
 475 -23 562 36 611 131 c 1
 655 36 733 -23 856 -23 c 0
 939 -23 1000 6 1056 37 c 1
 1082 54 1097 71 1112 109 c 1
 1058 186 l 1
 1047 158 1035 140 1014 127 c 1
 962 106 917 88 848 88 c 0
 797 88 763 102 742 129 c 1
 687 207 661 315 656 455 c 1
 1115 455 l 1
 1119 563 l 1
 1119 639 1113 702 1102 752 c 0
 1070 906 1009 1000 840 1000 c 0
 725 1000 658 949 619 865 c 1
 594 963 509 994 392 994 c 0
 271 994 174 952 124 869 c 1
 183 787 l 1
 204 819 236 843 267 854 c 1
 299 869 332 877 378 879 c 0
 415 881 430 873 453 868 c 1
 472 867 488 863 499 857 c 0
 531 841 536 789 540 731 c 0
 542 693 543 641 543 575 c 1
 493 568 450 571 391 571 c 2
 396 571 l 1
356 88 m 1
 243 88 209 153 209 279 c 0
 209 412 273 458 393 463 c 0
 454 465 491 460 543 468 c 1
 543 222 l 1
 516 144 453 87 356 87 c 1
 356 88 l 1
945 560 m 1
 655 560 l 1
 656 626 660 679 669 719 c 1
 689 821 723 887 833 887 c 0
 885 887 919 871 943 842 c 1
 986 783 996 682 998 560 c 1
 945 560 l 1
EndSplineSet
EndChar

StartChar: agrave
Encoding: 224 224 64
Width: 918
VWidth: 0
Flags: HW
LayerCount: 2
Fore
SplineSet
426 588 m 1
 294 584 195 543 140 467 c 1
 108 420 90 364 90 278 c 0
 90 73 199 -21 388 -21 c 0
 419 -21 448 -17 477 -8 c 0
 552 15 624 58 670 109 c 1
 674 56 688 7 717 -20 c 1
 747 -17 773 -16 801 -10 c 1
 790 131 l 1
 773 148 774 168 774 208 c 2
 774 581 l 2
 774 723 766 829 717 900 c 1
 667 976 569 998 447 998 c 0
 308 998 181 967 121 876 c 1
 176 790 l 1
 197 821 227 844 264 855 c 0
 321 872 384 887 451 887 c 0
 510 887 548 881 582 862 c 1
 660 826 662 708 662 582 c 1
 581 582 512 586 424 586 c 1
 426 588 l 1
204 285 m 1
 204 310 205 331 210 349 c 0
 249 517 486 481 663 481 c 1
 663 246 l 1
 655 229 643 211 625 193 c 0
 574 141 493 90 399 90 c 0
 263 90 205 139 205 285 c 1
 204 285 l 1
647 1245 m 1
 351 1505 l 1
 271 1413 l 1
 594 1180 l 1
 647 1245 l 1
EndSplineSet
EndChar

StartChar: ampersand
Encoding: 38 38 65
Width: 984
VWidth: 0
Flags: HW
LayerCount: 2
Fore
SplineSet
825 522 m 1
 775 317 705 84 462 84 c 0
 267 84 186 176 186 297 c 0
 186 596 697 695 697 1038 c 0
 697 1187 599 1308 438 1308 c 0
 305 1308 180 1216 180 1041 c 0
 180 973 200 883 266 790 c 2
 838 -19 l 1
 922 41 l 1
 370 811 l 2
 323 876 284 938 284 1044 c 0
 284 1146 348 1208 441 1208 c 0
 539 1208 592 1145 592 1033 c 0
 592 751 73 664 73 291 c 0
 73 123 200 -16 454 -16 c 0
 755 -16 856 223 917 492 c 1
 825 522 l 1
EndSplineSet
EndChar

StartChar: approxequal
Encoding: 8776 8776 66
Width: 1079
VWidth: 0
Flags: HW
LayerCount: 2
Fore
SplineSet
992 758 m 1
 928 821 l 1
 893 773 860 738 832 716 c 0
 803 694 775 683 749 683 c 0
 734 683 716 687 695 695 c 0
 622 724 553 771 482 805 c 1
 445 824 399 848 352 848 c 0
 310 848 267 833 224 802 c 0
 181 771 139 726 97 667 c 1
 164 603 l 1
 199 649 231 684 260 709 c 0
 289 734 319 746 349 746 c 0
 364 746 378 743 392 738 c 0
 444 719 489 686 536 662 c 1
 597 623 662 578 745 578 c 0
 770 578 792 582 813 590 c 0
 893 620 941 687 992 755 c 1
 992 758 l 1
992 380 m 1
 928 441 l 1
 893 394 860 359 832 336 c 0
 803 313 776 302 750 302 c 0
 683 302 623 342 571 376 c 0
 525 405 483 427 447 443 c 0
 411 459 379 467 349 467 c 0
 307 467 265 452 221 422 c 0
 178 392 136 348 95 289 c 1
 161 225 l 1
 196 271 229 306 257 331 c 0
 286 356 316 368 347 368 c 0
 371 368 396 361 423 347 c 0
 450 333 479 317 509 300 c 1
 575 259 644 202 743 202 c 0
 767 202 789 206 810 214 c 0
 890 244 938 311 989 379 c 1
 992 380 l 1
EndSplineSet
EndChar

StartChar: aring
Encoding: 229 229 67
Width: 916
VWidth: 0
Flags: HW
LayerCount: 2
Fore
SplineSet
424 588 m 1
 350 586 290 574 244 552 c 0
 146 505 89 434 89 280 c 0
 89 75 198 -19 387 -19 c 0
 418 -19 447 -15 476 -6 c 0
 551 17 623 60 669 111 c 1
 673 58 687 9 717 -18 c 1
 746 -15 772 -14 800 -8 c 1
 789 133 l 1
 772 150 773 170 773 210 c 2
 773 583 l 2
 773 725 765 831 716 902 c 1
 666 978 568 1000 447 1000 c 0
 307 1000 180 969 120 878 c 1
 175 792 l 1
 196 823 226 846 263 857 c 0
 321 874 384 889 450 889 c 0
 509 889 547 883 582 864 c 1
 659 828 661 710 661 584 c 1
 580 584 509 588 420 588 c 2
 424 588 l 1
202 287 m 1
 202 312 204 333 208 351 c 0
 247 518 484 482 661 482 c 1
 661 247 l 1
 653 230 640 212 622 194 c 0
 572 142 491 91 396 91 c 0
 260 91 203 140 203 286 c 1
 202 287 l 1
455 1111 m 0
 561 1111 634 1176 634 1293 c 0
 634 1412 563 1478 455 1478 c 0
 349 1478 278 1411 278 1295 c 0
 278 1179 349 1111 455 1111 c 0
455 1400 m 0
 522 1400 556 1364 556 1293 c 0
 556 1224 519 1189 455 1189 c 0
 392 1189 354 1226 354 1295 c 0
 354 1365 391 1400 455 1400 c 0
EndSplineSet
EndChar

StartChar: asciitilde
Encoding: 126 126 68
Width: 997
VWidth: 0
Flags: HW
LayerCount: 2
Fore
SplineSet
86 530 m 1
 164 469 l 1
 194 514 221 547 246 568 c 0
 270 589 294 599 319 599 c 0
 332 599 347 595 365 587 c 0
 430 558 490 512 553 479 c 0
 591 459 634 437 684 437 c 0
 709 437 732 441 752 450 c 0
 824 482 868 552 911 620 c 1
 835 679 l 1
 806 639 780 608 758 586 c 0
 735 564 712 553 688 553 c 0
 676 553 661 557 643 565 c 0
 577 595 508 640 442 674 c 0
 406 693 360 717 315 717 c 0
 293 717 273 712 253 702 c 0
 182 668 133 598 89 530 c 1
 86 530 l 1
EndSplineSet
EndChar

StartChar: asterisk
Encoding: 42 42 69
Width: 839
VWidth: 0
Flags: HW
LayerCount: 2
Fore
SplineSet
365 1132 m 1
 92 1221 l 1
 59 1122 l 1
 332 1031 l 1
 164 801 l 1
 248 739 l 1
 417 969 l 1
 587 739 l 1
 671 801 l 1
 502 1031 l 1
 776 1122 l 1
 743 1221 l 1
 470 1132 l 1
 470 1419 l 1
 365 1419 l 1
 365 1132 l 1
EndSplineSet
EndChar

StartChar: at
Encoding: 64 64 70
Width: 1147
VWidth: 0
Flags: HW
LayerCount: 2
Fore
SplineSet
480 436 m 1
 480 608 511 760 657 760 c 0
 717 760 777 748 819 727 c 1
 818 712 817 691 817 664 c 0
 816 569 813 462 804 375 c 1
 798 329 790 269 768 247 c 1
 731 222 688 198 633 198 c 0
 518 198 481 307 481 437 c 1
 480 436 l 1
735 860 m 1
 724 860 721 851 716 840 c 1
 679 856 633 867 584 858 c 1
 549 850 517 834 489 810 c 0
 411 742 363 623 363 470 c 0
 363 305 408 172 512 128 c 1
 593 95 650 128 700 174 c 1
 762 124 845 100 939 129 c 1
 1006 351 1048 616 1048 911 c 1
 1046 948 1033 982 1011 1014 c 0
 939 1114 804 1175 641 1173 c 0
 561 1173 489 1157 422 1125 c 0
 216 1026 96 792 96 462 c 0
 96 357 108 265 131 186 c 0
 195 -32 339 -198 587 -203 c 0
 708 -205 809 -183 919 -139 c 1
 885 -33 l 1
 796 -66 704 -92 594 -92 c 0
 534 -92 480 -79 432 -54 c 0
 279 27 205 216 205 469 c 0
 205 721 291 905 433 999 c 0
 502 1045 583 1074 688 1057 c 1
 790 1039 879 983 906 883 c 1
 915 842 918 739 877 735 c 1
 866 716 858 702 853 694 c 0
 849 686 846 679 846 672 c 1
 827 682 809 691 788 698 c 1
 777 755 768 806 758 862 c 1
 755 862 752 862 750 863 c 1
 745 863 741 864 736 864 c 1
 735 860 l 1
EndSplineSet
EndChar

StartChar: atilde
Encoding: 227 227 71
Width: 922
VWidth: 0
Flags: HW
LayerCount: 2
Fore
SplineSet
429 588 m 1
 297 584 198 543 143 467 c 1
 111 420 93 364 93 278 c 0
 93 73 202 -21 391 -21 c 0
 422 -21 451 -17 480 -8 c 0
 555 15 627 58 673 109 c 1
 677 56 691 7 720 -20 c 1
 750 -17 776 -16 804 -10 c 1
 793 131 l 1
 776 148 777 168 777 208 c 2
 777 581 l 2
 777 723 769 829 720 900 c 1
 670 976 572 998 450 998 c 0
 311 998 184 967 124 876 c 1
 179 790 l 1
 200 821 230 844 267 855 c 0
 324 872 387 887 454 887 c 0
 513 887 551 881 585 862 c 1
 663 826 665 708 665 582 c 1
 584 582 515 586 427 586 c 1
 429 588 l 1
207 285 m 1
 207 310 208 331 213 349 c 0
 252 517 489 481 666 481 c 1
 666 246 l 1
 658 229 646 211 628 193 c 0
 577 141 496 90 402 90 c 0
 266 90 208 139 208 285 c 1
 207 285 l 1
719 1378 m 1
 656 1425 l 1
 637 1398 620 1378 605 1364 c 0
 591 1350 576 1343 563 1343 c 0
 553 1343 540 1348 522 1358 c 0
 505 1368 486 1379 466 1392 c 1
 432 1412 384 1442 337 1442 c 0
 310 1442 282 1432 253 1411 c 0
 225 1390 198 1356 173 1309 c 1
 242 1260 l 1
 261 1287 278 1308 293 1323 c 0
 308 1338 324 1346 339 1346 c 0
 351 1346 365 1340 383 1329 c 0
 401 1318 421 1306 441 1293 c 0
 475 1272 522 1240 568 1240 c 0
 644 1240 689 1304 719 1375 c 1
 719 1378 l 1
EndSplineSet
EndChar

StartChar: b
Encoding: 98 98 72
Width: 988
VWidth: 0
Flags: W
HStem: -16 94<305.916 659.113> 905 95<361.689 654.941>
VStem: 154 111<120.742 168 810 834.736> 765 115<207.919 768.751>
LayerCount: 2
Fore
SplineSet
265 810 m 1
 373 873 459 905 530 905 c 0
 694 905 765 750 765 491 c 0
 765 212 697 78 513 78 c 0
 440 78 374 95 265 137 c 1
 265 810 l 1
251 50 m 1
 356 6 439 -16 520 -16 c 0
 759 -16 880 166 880 493 c 0
 880 854 732 1000 544 1000 c 0
 452 1000 363 966 265 905 c 1
 265 1373 l 1
 154 1373 l 1
 154 168 l 1
 141 -2 l 1
 241 -10 l 1
 251 50 l 1
EndSplineSet
EndChar

StartChar: backslash
Encoding: 92 92 73
Width: 762
VWidth: 0
Flags: HW
LayerCount: 2
Fore
SplineSet
107 1473 m 1
 31 1432 l 1
 657 -96 l 1
 732 -55 l 1
 107 1473 l 1
EndSplineSet
EndChar

StartChar: bar
Encoding: 124 124 74
Width: 421
VWidth: 0
Flags: HW
LayerCount: 2
Fore
SplineSet
152 1526 m 1
 152 -436 l 1
 268 -436 l 1
 268 1526 l 1
 152 1526 l 1
EndSplineSet
EndChar

StartChar: braceleft
Encoding: 123 123 75
Width: 576
VWidth: 0
Flags: HW
LayerCount: 2
Fore
SplineSet
216 1037 m 2
 216 958 215 874 210 801 c 1
 163 770 115 739 64 712 c 1
 64 603 l 1
 115 574 163 547 210 514 c 1
 214 444 215 362 215 285 c 0
 215 152 201 -4 221 -119 c 1
 231 -304 372 -297 543 -297 c 1
 551 -195 l 1
 429 -195 326 -191 324 -55 c 0
 324 -35 323 -9 323 24 c 0
 321 203 332 392 327 567 c 1
 306 583 271 600 246 614 c 0
 225 626 189 643 180 664 c 1
 231 691 280 718 327 749 c 1
 332 946 312 1162 325 1353 c 1
 327 1485 432 1492 552 1492 c 1
 544 1594 l 1
 369 1594 232 1598 222 1414 c 1
 214 1375 215 1319 215 1266 c 0
 215 1194 216 1113 216 1038 c 2
 216 1037 l 2
EndSplineSet
EndChar

StartChar: braceright
Encoding: 125 125 76
Width: 573
VWidth: 0
Flags: HW
LayerCount: 2
Fore
SplineSet
395 664 m 1
 391 657 383 649 371 640 c 0
 335 615 283 591 247 567 c 1
 242 364 262 144 250 -55 c 1
 246 -188 146 -195 23 -195 c 1
 31 -297 l 1
 77 -297 120 -296 158 -295 c 0
 277 -291 345 -247 353 -119 c 1
 364 -37 361 65 360 161 c 2
 359 284 l 2
 358 361 359 443 364 513 c 1
 412 547 459 574 510 603 c 1
 510 710 l 1
 458 738 411 766 364 799 c 1
 357 910 360 1038 361 1155 c 0
 362 1242 366 1340 354 1411 c 1
 351 1457 341 1492 325 1516 c 0
 272 1595 157 1590 31 1590 c 1
 24 1488 l 1
 49 1488 74 1488 100 1487 c 0
 187 1485 247 1448 251 1349 c 0
 252 1332 253 1308 253 1278 c 0
 255 1103 244 917 248 744 c 1
 295 713 345 686 396 659 c 1
 395 664 l 1
EndSplineSet
EndChar

StartChar: bracketleft
Encoding: 91 91 77
Width: 550
VWidth: 0
Flags: HW
LayerCount: 2
Fore
SplineSet
154 1591 m 1
 154 -287 l 1
 525 -287 l 1
 525 -184 l 1
 267 -184 l 1
 272 133 l 1
 272 1298 l 1
 267 1487 l 1
 525 1487 l 1
 525 1591 l 1
 154 1591 l 1
EndSplineSet
EndChar

StartChar: bracketright
Encoding: 93 93 78
Width: 547
VWidth: 0
Flags: HW
LayerCount: 2
Fore
SplineSet
23 1591 m 1
 23 1487 l 1
 281 1487 l 1
 276 1178 l 1
 276 137 l 1
 281 -184 l 1
 23 -184 l 1
 23 -287 l 1
 394 -287 l 1
 394 1591 l 1
 23 1591 l 1
EndSplineSet
EndChar

StartChar: bullet
Encoding: 8226 8226 79
Width: 456
VWidth: 0
Flags: HW
LayerCount: 2
Fore
SplineSet
268 469 m 1
 319 500 359 567 359 655 c 1
 336 714 269 756 193 756 c 1
 140 726 101 656 101 569 c 1
 126 510 191 469 268 469 c 1
EndSplineSet
EndChar

StartChar: c
Encoding: 99 99 80
Width: 876
VWidth: 0
Flags: HW
LayerCount: 2
Fore
SplineSet
479 90 m 2
 269 90 213 261 213 494 c 0
 213 736 268 889 480 889 c 0
 545 889 594 878 642 859 c 1
 642 672 l 1
 747 682 l 1
 747 940 l 1
 676 974 591 1001 484 1001 c 0
 203 1001 96 806 96 496 c 0
 96 326 125 196 191 111 c 1
 246 32 351 -20 480 -20 c 0
 609 -20 718 30 773 115 c 1
 720 197 l 1
 670 129 585 90 477 90 c 2
 479 90 l 2
EndSplineSet
EndChar

StartChar: ccedilla
Encoding: 231 231 81
Width: 880
VWidth: 0
Flags: HW
LayerCount: 2
Fore
SplineSet
211 494 m 1
 211 734 264 889 477 889 c 0
 543 889 591 872 640 854 c 1
 645 793 650 740 654 672 c 1
 759 682 l 1
 754 780 745 854 735 940 c 1
 665 974 585 1001 481 1001 c 0
 405 1001 342 987 291 959 c 0
 149 881 96 736 96 496 c 0
 96 179 199 -20 481 -20 c 0
 571 -20 638 8 700 35 c 1
 730 54 753 76 771 115 c 1
 718 197 l 1
 698 164 682 149 654 133 c 1
 602 110 551 90 481 90 c 0
 266 90 212 256 212 494 c 1
 211 494 l 1
451 -119 m 1
 455 -105 458 -93 462 -80 c 1
 425 -80 390 -84 358 -90 c 1
 357 -186 l 1
 381 -188 405 -191 424 -198 c 1
 485 -198 526 -217 526 -284 c 0
 526 -341 496 -372 442 -372 c 2
 423 -372 l 1
 390 -369 361 -364 337 -351 c 1
 322 -431 l 1
 360 -447 391 -457 436 -460 c 1
 450 -462 465 -460 479 -460 c 1
 565 -449 619 -384 619 -279 c 0
 619 -169 547 -117 449 -117 c 1
 451 -119 l 1
EndSplineSet
EndChar

StartChar: cent
Encoding: 162 162 82
Width: 769
VWidth: 0
Flags: HW
LayerCount: 2
Fore
SplineSet
413 -16 m 1
 413 -147 l 1
 511 -147 l 1
 511 -16 l 1
 588 -7 653 13 719 41 c 1
 691 143 l 1
 615 113 543 86 460 86 c 0
 416 86 377 95 345 114 c 0
 242 173 197 311 197 487 c 0
 197 707 265 881 460 881 c 0
 537 881 602 866 664 844 c 1
 687 946 l 1
 633 965 573 977 507 984 c 1
 507 1125 l 1
 409 1125 l 1
 409 982 l 1
 197 957 92 792 92 486 c 0
 92 208 188 11 413 -15 c 1
 413 -16 l 1
EndSplineSet
EndChar

StartChar: colon
Encoding: 58 58 83
Width: 462
VWidth: 0
Flags: HW
LayerCount: 2
Fore
SplineSet
132 841 m 1
 132 601 l 1
 331 601 l 1
 331 841 l 1
 132 841 l 1
132 287 m 1
 132 47 l 1
 331 47 l 1
 331 287 l 1
 132 287 l 1
EndSplineSet
EndChar

StartChar: comma
Encoding: 44 44 84
Width: 409
VWidth: 0
Flags: HW
LayerCount: 2
Fore
SplineSet
127 215 m 1
 127 -4 l 1
 199 -4 l 1
 194 -90 151 -162 113 -221 c 1
 160 -274 l 1
 225 -199 296 -104 296 39 c 2
 296 215 l 1
 127 215 l 1
EndSplineSet
EndChar

StartChar: copyright
Encoding: 169 169 85
Width: 990
VWidth: 0
Flags: HW
LayerCount: 2
Fore
SplineSet
511 1098 m 1
 447 1098 390 1086 338 1063 c 0
 182 993 93 824 93 580 c 0
 93 499 102 426 121 362 c 0
 173 184 296 59 505 59 c 0
 659 59 765 121 834 225 c 1
 841 247 846 271 849 297 c 1
 832 293 815 302 796 324 c 1
 756 375 730 472 730 575 c 0
 730 667 733 744 740 806 c 0
 746 868 751 915 752 948 c 1
 758 955 771 972 782 962 c 1
 739 1020 676 1052 594 1058 c 1
 574 1080 546 1097 511 1097 c 1
 511 1098 l 1
778 718 m 1
 781 852 710 956 608 976 c 1
 578 987 543 996 506 996 c 0
 282 996 175 829 175 577 c 0
 175 325 290 175 515 175 c 0
 551 175 582 181 608 194 c 1
 605 215 600 233 594 251 c 1
 571 242 542 237 512 237 c 0
 492 237 484 245 482 266 c 0
 478 310 487 346 495 395 c 1
 552 526 619 635 702 733 c 1
 731 733 756 727 778 719 c 1
 778 718 l 1
900 578 m 2
 900 879 776 1083 508 1083 c 0
 445 1083 390 1072 341 1049 c 0
 192 980 112 815 112 579 c 0
 112 279 239 79 508 79 c 0
 569 79 624 90 672 113 c 0
 820 182 900 346 900 579 c 2
 900 578 l 2
EndSplineSet
EndChar

StartChar: d
Encoding: 100 100 86
Width: 971
VWidth: 0
Flags: HW
LayerCount: 2
Fore
SplineSet
460 79 m 0
 282 79 208 234 208 493 c 0
 208 772 276 906 460 906 c 0
 533 906 599 889 708 847 c 1
 708 137 l 1
 599 95 533 79 460 79 c 0
453 -16 m 0
 534 -16 617 6 722 50 c 1
 732 -10 l 1
 832 -2 l 1
 819 168 l 1
 819 1373 l 1
 708 1373 l 1
 710 939 l 1
 605 983 534 1000 453 1000 c 0
 214 1000 93 818 93 491 c 0
 93 130 250 -16 453 -16 c 0
EndSplineSet
EndChar

StartChar: d.alt
Encoding: 65537 -1 87
Width: 971
VWidth: 0
Flags: HW
LayerCount: 2
Fore
SplineSet
460 79 m 0
 282 79 208 234 208 493 c 0
 208 772 276 906 460 906 c 0
 533 906 599 889 708 847 c 1
 708 137 l 1
 599 95 533 79 460 79 c 0
453 -16 m 0
 534 -16 617 6 722 50 c 1
 732 -10 l 1
 832 -2 l 1
 819 168 l 1
 819 1373 l 1
 708 1373 l 1
 710 939 l 1
 605 983 534 1000 453 1000 c 0
 214 1000 93 818 93 491 c 0
 93 130 250 -16 453 -16 c 0
EndSplineSet
EndChar

StartChar: dagger
Encoding: 8224 8224 88
Width: 824
VWidth: 0
Flags: HW
LayerCount: 2
Fore
SplineSet
355 1511 m 1
 355 1081 l 1
 47 1081 l 1
 47 975 l 1
 357 975 l 1
 357 -238 l 1
 469 -238 l 1
 469 977 l 1
 775 977 l 1
 775 1081 l 1
 469 1081 l 1
 469 1511 l 1
 355 1511 l 1
EndSplineSet
EndChar

StartChar: daggerdbl
Encoding: 8225 8225 89
Width: 873
VWidth: 0
Flags: HW
LayerCount: 2
Fore
SplineSet
382 1513 m 1
 382 1087 l 1
 74 1087 l 1
 74 981 l 1
 382 981 l 1
 382 322 l 1
 74 322 l 1
 74 217 l 1
 382 217 l 1
 382 -238 l 1
 492 -238 l 1
 492 217 l 1
 802 217 l 1
 802 322 l 1
 492 322 l 1
 492 981 l 1
 802 981 l 1
 802 1087 l 1
 492 1087 l 1
 492 1513 l 1
 382 1513 l 1
EndSplineSet
EndChar

StartChar: degree
Encoding: 176 176 90
Width: 667
VWidth: 0
Flags: HW
LayerCount: 2
Fore
SplineSet
335 918 m 1
 371 918 403 924 432 937 c 0
 510 972 570 1049 570 1169 c 0
 570 1204 564 1237 554 1268 c 1
 521 1358 448 1421 336 1421 c 0
 299 1421 266 1415 236 1402 c 0
 156 1368 96 1290 96 1169 c 0
 96 1132 102 1098 113 1067 c 0
 147 978 221 917 334 917 c 1
 335 918 l 1
470 1168 m 0
 470 1074 416 1011 331 1011 c 0
 246 1011 197 1075 197 1170 c 0
 197 1265 246 1328 331 1328 c 0
 419 1328 470 1264 470 1168 c 0
EndSplineSet
EndChar

StartChar: divide
Encoding: 247 247 91
Width: 933
VWidth: 0
Flags: HW
LayerCount: 2
Fore
SplineSet
374 281 m 1
 394 240 432 219 487 219 c 1
 521 242 538 286 538 352 c 1
 517 393 480 414 426 414 c 1
 391 391 374 347 374 282 c 2
 374 281 l 1
426 771 m 1
 487 771 l 1
 521 779 538 808 538 857 c 0
 538 914 521 951 487 968 c 1
 426 968 l 1
 391 959 374 930 374 881 c 0
 374 824 391 788 426 771 c 1
83 548 m 1
 839 548 l 1
 839 646 l 1
 83 646 l 1
 83 548 l 1
EndSplineSet
EndChar

StartChar: dollar
Encoding: 36 36 92
Width: 864
VWidth: 0
Flags: W
HStem: -17 101<215.792 644.377> 1208 100<326.488 767.581>
VStem: 110 120<834.732 1114.9> 752 120<186.949 486.726>
LayerCount: 2
Fore
SplineSet
465 -188 m 1
 544 -188 l 1
 545 1465 l 1
 464 1465 l 1
 465 -188 l 1
EndSplineSet
Refer: 46 83 N 1 0 0 1 0 0 2
EndChar

StartChar: dotlessi
Encoding: 305 305 93
Width: 603
VWidth: 0
Flags: HW
LayerCount: 2
Fore
SplineSet
113 0 m 1
 524 0 l 1
 524 117 l 1
 378 162 l 1
 378 985 l 1
 122 985 l 1
 122 868 l 1
 267 868 l 1
 267 162 l 1
 113 117 l 1
 113 0 l 1
EndSplineSet
EndChar

StartChar: e
Encoding: 101 101 94
Width: 924
VWidth: 0
Flags: W
HStem: -16 94<351.276 673.212> 906 94<343.853 616.148>
VStem: 92 119<243.38 471 558 747.158> 712 104<558.335 803.723>
LayerCount: 2
Fore
SplineSet
709 558 m 1
 212 558 l 1
 215 805 353 906 480 906 c 0
 623 906 712 802 712 608 c 0
 712 585 709 556 709 558 c 1
211 471 m 1
 808 471 l 5
 808 471 816 559 816 604 c 0
 816 827 700 1000 477 1000 c 0
 224 1000 92 775 92 496 c 0
 92 241 210 -16 496 -16 c 0
 586 -16 685 13 782 73 c 1
 739 158 l 1
 658 106 573 78 495 78 c 0
 336 78 225 199 211 446 c 1
 211 471 l 1
EndSplineSet
EndChar

StartChar: eacute
Encoding: 233 233 95
Width: 914
VWidth: 0
Flags: HW
LayerCount: 2
Fore
SplineSet
689 551 m 1
 631 553 l 1
 209 553 l 1
 214 672 236 765 286 823 c 1
 322 867 379 891 458 891 c 0
 640 891 682 756 689 551 c 1
476 90 m 1
 401 90 344 113 309 150 c 1
 245 212 211 311 209 446 c 1
 800 446 l 1
 800 475 803 526 805 553 c 1
 805 689 777 800 725 871 c 1
 671 953 583 1000 455 1000 c 0
 393 1000 341 990 300 969 c 0
 152 895 94 730 94 491 c 0
 94 175 197 -21 475 -21 c 0
 527 -21 572 -15 610 -3 c 0
 689 21 751 44 787 118 c 1
 732 198 l 1
 672 130 596 89 477 89 c 1
 476 90 l 1
256 1246 m 1
 308 1181 l 1
 630 1414 l 1
 551 1506 l 1
 256 1246 l 1
EndSplineSet
EndChar

StartChar: ecircumflex
Encoding: 234 234 96
Width: 915
VWidth: 0
Flags: HW
LayerCount: 2
Fore
SplineSet
690 551 m 1
 632 553 l 1
 210 553 l 1
 215 672 237 765 287 823 c 1
 323 867 380 891 459 891 c 0
 641 891 683 756 690 551 c 1
477 90 m 1
 402 90 345 113 310 150 c 1
 246 212 212 311 210 446 c 1
 801 446 l 1
 801 475 804 526 806 553 c 1
 806 689 778 800 726 871 c 1
 672 953 584 1000 456 1000 c 0
 394 1000 342 990 301 969 c 0
 153 895 95 730 95 491 c 0
 95 175 198 -21 476 -21 c 0
 528 -21 573 -15 611 -3 c 0
 690 21 752 44 788 118 c 1
 733 198 l 1
 673 130 597 89 478 89 c 1
 477 90 l 1
450 1439 m 1
 596 1181 l 1
 710 1181 l 1
 499 1515 l 1
 401 1515 l 1
 188 1181 l 1
 303 1181 l 1
 450 1439 l 1
EndSplineSet
EndChar

StartChar: edieresis
Encoding: 235 235 97
Width: 919
VWidth: 0
Flags: HW
LayerCount: 2
Fore
SplineSet
692 551 m 1
 634 553 l 1
 212 553 l 1
 217 672 239 765 289 823 c 1
 325 867 382 891 461 891 c 0
 643 891 685 756 692 551 c 1
479 90 m 1
 404 90 347 113 312 150 c 1
 248 212 214 311 212 446 c 1
 803 446 l 1
 803 475 806 526 808 553 c 1
 808 689 780 800 728 871 c 1
 674 953 586 1000 458 1000 c 0
 396 1000 344 990 303 969 c 0
 155 895 97 730 97 491 c 0
 97 175 200 -21 478 -21 c 0
 530 -21 575 -15 613 -3 c 0
 692 21 754 44 790 118 c 1
 735 198 l 1
 675 130 599 89 480 89 c 1
 479 90 l 1
198 1330 m 0
 198 1280 225 1246 270 1246 c 0
 317 1246 342 1279 342 1330 c 0
 342 1380 318 1412 270 1412 c 0
 224 1412 198 1380 198 1330 c 0
559 1330 m 0
 559 1280 588 1246 633 1246 c 0
 677 1246 705 1282 705 1330 c 0
 705 1378 678 1412 633 1412 c 0
 588 1412 559 1380 559 1330 c 0
EndSplineSet
EndChar

StartChar: egrave
Encoding: 232 232 98
Width: 913
VWidth: 0
Flags: HW
LayerCount: 2
Fore
SplineSet
688 551 m 1
 630 553 l 1
 208 553 l 1
 213 672 235 765 285 823 c 1
 321 867 378 891 457 891 c 0
 639 891 681 756 688 551 c 1
475 90 m 1
 400 90 343 113 308 150 c 1
 244 212 210 311 208 446 c 1
 799 446 l 1
 799 475 802 526 804 553 c 1
 804 689 776 800 724 871 c 1
 670 953 582 1000 454 1000 c 0
 392 1000 340 990 299 969 c 0
 151 895 93 730 93 491 c 0
 93 175 196 -21 474 -21 c 0
 526 -21 571 -15 609 -3 c 0
 688 21 750 44 786 118 c 1
 731 198 l 1
 671 130 595 89 476 89 c 1
 475 90 l 1
635 1246 m 1
 339 1506 l 1
 260 1414 l 1
 581 1181 l 1
 635 1246 l 1
EndSplineSet
EndChar

StartChar: eight
Encoding: 56 56 99
Width: 948
VWidth: 0
Flags: HW
LayerCount: 2
Fore
SplineSet
828 991 m 2
 828 1042 820 1088 805 1129 c 0
 757 1258 643 1326 478 1326 c 0
 269 1326 125 1219 125 988 c 0
 125 826 215 734 319 675 c 1
 170 612 95 499 95 336 c 0
 95 90 243 -27 472 -27 c 0
 700 -27 859 84 859 336 c 0
 859 505 783 619 631 678 c 1
 738 733 828 825 828 990 c 2
 828 991 l 2
476 87 m 0
 314 87 215 164 215 343 c 0
 215 521 332 603 478 620 c 1
 628 603 739 519 739 343 c 0
 739 167 636 87 476 87 c 0
476 734 m 1
 336 750 240 828 240 988 c 0
 240 1147 328 1218 476 1218 c 0
 633 1218 712 1141 712 986 c 0
 712 823 619 751 476 734 c 1
EndSplineSet
EndChar

StartChar: ellipsis
Encoding: 8230 8230 100
Width: 1134
VWidth: 0
Flags: HW
LayerCount: 2
Fore
SplineSet
115 184 m 1
 115 0 l 1
 263 0 l 1
 263 184 l 1
 115 184 l 1
495 184 m 1
 495 0 l 1
 640 0 l 1
 640 184 l 1
 495 184 l 1
875 184 m 1
 875 0 l 1
 1021 0 l 1
 1021 184 l 1
 875 184 l 1
EndSplineSet
EndChar

StartChar: emdash
Encoding: 8212 8212 101
Width: 1104
VWidth: 0
Flags: HW
LayerCount: 2
Fore
SplineSet
108 547 m 1
 998 547 l 1
 998 643 l 1
 108 643 l 1
 108 547 l 1
EndSplineSet
EndChar

StartChar: endash
Encoding: 8211 8211 102
Width: 874
VWidth: 0
Flags: HW
LayerCount: 2
Fore
SplineSet
108 547 m 1
 768 547 l 1
 768 643 l 1
 108 643 l 1
 108 547 l 1
EndSplineSet
EndChar

StartChar: equal
Encoding: 61 61 103
Width: 1003
VWidth: 0
Flags: HW
LayerCount: 2
Fore
SplineSet
116 371 m 1
 890 371 l 1
 890 467 l 1
 116 467 l 1
 116 371 l 1
116 684 m 1
 890 684 l 1
 890 780 l 1
 116 780 l 1
 116 684 l 1
EndSplineSet
EndChar

StartChar: exclam
Encoding: 33 33 104
Width: 402
VWidth: 0
Flags: HW
LayerCount: 2
Fore
SplineSet
259 1194 m 1
 259 1395 l 1
 142 1395 l 1
 142 1194 l 1
 152 369 l 1
 249 369 l 1
 259 1194 l 1
128 182 m 1
 128 -8 l 1
 286 -8 l 1
 286 182 l 1
 128 182 l 1
EndSplineSet
EndChar

StartChar: exclamdown
Encoding: 161 161 105
Width: 404
VWidth: 0
Flags: HW
LayerCount: 2
Fore
SplineSet
275 1137 m 1
 120 1137 l 1
 120 946 l 1
 275 946 l 1
 275 1137 l 1
252 758 m 1
 156 758 l 1
 145 -117 l 1
 145 -268 l 1
 263 -268 l 1
 263 -31 l 1
 259 232 255.333007812 495 252 758 c 1
EndSplineSet
EndChar

StartChar: f
Encoding: 102 102 106
Width: 746
VWidth: 0
Flags: HW
HStem: 0 100<105 265 376 570> 890 95<90 265 376 625> 1302 92<424.283 695.522>
VStem: 265 111<100 890 985 1248.98>
LayerCount: 2
Fore
SplineSet
265 985 m 1
 265 1238 306 1394 524 1394 c 0
 575 1394 631 1386 709 1359 c 1
 689 1274 l 1
 618 1292 564 1302 522 1302 c 0
 418 1302 376 1234 376 985 c 1
 625 985 l 1
 625 890 l 1
 376 890 l 1
 376 100 l 1
 600 100 l 5
 600 0 l 5
 105 0 l 1
 105 100 l 1
 265 100 l 1
 265 890 l 1
 90 890 l 1
 90 985 l 1
 265 985 l 1
EndSplineSet
EndChar

StartChar: f_i
Encoding: 64257 64257 107
Width: 966
VWidth: 0
Flags: HW
LayerCount: 2
Fore
SplineSet
226 973 m 1
 51 973 l 1
 51 870 l 1
 226 870 l 1
 226 0 l 1
 323 0 l 1
 323 870 l 1
 722 870 l 1
 722 0 l 1
 819 0 l 1
 819 973 l 1
 323 973 l 1
 323 1159 372 1278 528 1278 c 0
 600 1278 681 1264 771 1237 c 1
 790 1337 l 1
 755 1348 l 1
 683 1368 609 1378 530 1378 c 0
 317 1378 226 1222 226 973 c 1
EndSplineSet
EndChar

StartChar: f_l
Encoding: 64258 64258 108
Width: 1001
VWidth: 0
Flags: HW
LayerCount: 2
Fore
SplineSet
751 1262 m 1
 751 0 l 1
 849 0 l 1
 849 1350 l 1
 799 1356 l 2
 709 1367 622 1378 530 1378 c 0
 316 1378 226 1222 226 973 c 1
 51 973 l 1
 51 870 l 1
 226 870 l 1
 226 0 l 1
 323 0 l 1
 323 870 l 1
 620 870 l 1
 620 973 l 1
 323 973 l 1
 323 1153 370 1278 520 1278 c 0
 599 1278 674 1271 751 1262 c 1
EndSplineSet
EndChar

StartChar: five
Encoding: 53 53 109
Width: 899
VWidth: 0
Flags: HW
LayerCount: 2
Fore
SplineSet
706 380 m 0
 706 204 593 84 408 84 c 0
 253 84 115 136 115 136 c 1
 88 40 l 1
 88 40 226 -16 401 -16 c 0
 643 -16 822 120 822 378 c 0
 822 646 658 794 459 794 c 0
 382 794 303 772 223 726 c 1
 238 1184 l 1
 754 1184 l 1
 754 1284 l 1
 137 1284 l 1
 137 1284 126 853 122 637 c 1
 196 608 l 1
 273 666 361 697 442 697 c 0
 585 697 706 600 706 380 c 0
EndSplineSet
EndChar

StartChar: florin
Encoding: 402 402 110
Width: 896
VWidth: 0
Flags: HW
LayerCount: 2
Fore
SplineSet
361 -31 m 1
 477 840 l 1
 767 840 l 1
 785 952 l 1
 491 952 l 1
 503 1058 527 1139 560 1194 c 1
 586 1254 613 1290 693 1290 c 0
 732 1290 779 1282 833 1266 c 1
 861 1380 l 1
 819 1391 779 1399 742 1403 c 1
 716 1403 692 1406 669 1403 c 1
 452 1387 406 1183 378 952 c 1
 206 952 l 1
 190 840 l 1
 363 840 l 1
 320 494 289 222 248 -37 c 1
 232 -146 212 -241 131 -276 c 1
 103 -297 68 -308 23 -305 c 1
 14 -416 l 1
 27 -417 41 -418 54 -418 c 0
 274 -413 329 -251 359 -31 c 1
 361 -31 l 1
EndSplineSet
EndChar

StartChar: four
Encoding: 52 52 111
Width: 878
VWidth: 0
Flags: HW
LayerCount: 2
Fore
SplineSet
834 367 m 1
 668 367 l 1
 668 797 l 1
 566 797 l 1
 566 367 l 1
 181 367 l 1
 475 1298 l 1
 369 1298 l 1
 67 356 l 1
 67 260 l 1
 566 260 l 1
 566 -20 l 1
 668 -20 l 1
 668 260 l 1
 834 260 l 1
 834 367 l 1
EndSplineSet
EndChar

StartChar: fraction
Encoding: 8260 8260 112
Width: 693
VWidth: 0
Flags: HW
LayerCount: 2
Fore
SplineSet
565 1452 m 1
 42 0 l 1
 141 -6 l 1
 667 1446 l 1
 565 1452 l 1
EndSplineSet
EndChar

StartChar: g
Encoding: 103 103 113
Width: 975
VWidth: 0
Flags: W
HStem: -409 113<265.375 626.065> -3 114<315.971 612.87>
VStem: 96 119<224.498 761.021> 718 110<-200.22 50 175.861 212 805 828.719>
LayerCount: 2
Fore
SplineSet
463 111 m 1
 261 111 215 267 215 498 c 0
 215 737 272 889 482 889 c 0
 578 889 649 848 709 805 c 1
 715 698 718 605 718 478 c 2
 718 212 l 1
 658 153 571 110 463 110 c 1
 463 111 l 1
461 -296 m 2
 341 -296 237 -255 174 -187 c 1
 126 -271 l 1
 190 -362 321 -409 464 -409 c 0
 581 -409 669 -373 729 -314 c 0
 753 -291 775 -258 793 -216 c 0
 821 -149 828 -52 828 50 c 2
 824 984 l 1
 726 984 l 1
 719 892 l 1
 636 951 551 1011 411 994 c 1
 181 971 96 773 96 493 c 0
 96 194 182 -3 446 -3 c 0
 566 -3 648 53 717 120 c 1
 717 -17 l 2
 717 -209 633 -296 460 -296 c 2
 461 -296 l 2
EndSplineSet
EndChar

StartChar: germandbls
Encoding: 223 223 114
Width: 1015
VWidth: 0
Flags: HW
LayerCount: 2
Fore
SplineSet
482 1286 m 0
 529 1286 568 1281 598 1271 c 0
 690 1239 711 1153 711 1018 c 1
 677 991 644 968 614 950 c 0
 530 902 448 863 408 768 c 1
 408 731 l 1
 424 654 468 613 529 584 c 0
 632 535 770 541 787 401 c 1
 800 384 802 358 802 322 c 0
 802 181 766 106 647 98 c 1
 555 87 472 115 412 156 c 1
 374 66 l 1
 429 25 485 -11 569 -17 c 0
 814 -33 920 78 915 338 c 0
 912 534 780 591 663 661 c 0
 626 684 579 710 567 754 c 1
 613 870 707 919 824 963 c 1
 824 1005 823 1045 821 1082 c 0
 808 1306 703 1397 486 1397 c 0
 254 1397 145 1266 145 1008 c 2
 145 0 l 1
 254 0 l 1
 254 997 l 2
 254 1186 313 1286 482 1286 c 0
EndSplineSet
EndChar

StartChar: greater
Encoding: 62 62 115
Width: 896
VWidth: 0
Flags: HW
LayerCount: 2
Fore
SplineSet
124 61 m 1
 837 563 l 1
 837 629 l 1
 124 1116 l 1
 68 1030 l 1
 712 596 l 1
 68 150 l 1
 124 61 l 1
EndSplineSet
EndChar

StartChar: greaterequal
Encoding: 8805 8805 116
Width: 1020
VWidth: 0
Flags: HW
LayerCount: 2
Fore
SplineSet
949 768 m 1
 108 1161 l 1
 86 1065 l 1
 833 725 l 1
 833 723 l 1
 86 369 l 1
 108 274 l 1
 949 678 l 1
 949 768 l 1
256 43 m 1
 896 43 l 1
 906 123 l 1
 777 129 l 1
 133 129 l 1
 124 49 l 1
 256 43 l 1
EndSplineSet
EndChar

StartChar: guillemotleft
Encoding: 171 171 117
Width: 892
VWidth: 0
Flags: HW
LayerCount: 2
Fore
SplineSet
432 160 m 1
 462 279 l 1
 188 545 l 1
 462 817 l 1
 432 936 l 1
 97 600 l 1
 75 520 l 1
 432 160 l 1
775 160 m 1
 803 279 l 1
 530 545 l 1
 803 817 l 1
 775 936 l 1
 438 600 l 1
 416 520 l 1
 775 160 l 1
EndSplineSet
EndChar

StartChar: guillemotright
Encoding: 187 187 118
Width: 885
VWidth: 0
Flags: HW
LayerCount: 2
Fore
SplineSet
431 279 m 1
 461 160 l 1
 818 520 l 1
 790 608 l 1
 461 936 l 1
 431 817 l 1
 706 545 l 1
 431 279 l 1
90 279 m 1
 118 160 l 1
 477 520 l 1
 456 600 l 1
 118 936 l 1
 90 817 l 1
 363 545 l 1
 90 279 l 1
EndSplineSet
EndChar

StartChar: guilsinglleft
Encoding: 8249 8249 119
Width: 542
VWidth: 0
Flags: HW
LayerCount: 2
Fore
SplineSet
419 934 m 1
 79 573 l 1
 79 483 l 1
 419 123 l 1
 459 236 l 1
 192 526 l 1
 459 823 l 1
 419 934 l 1
EndSplineSet
EndChar

StartChar: guilsinglright
Encoding: 8250 8250 120
Width: 536
VWidth: 0
Flags: HW
LayerCount: 2
Fore
SplineSet
463 573 m 1
 125 934 l 1
 85 823 l 1
 352 526 l 1
 85 236 l 1
 125 123 l 1
 463 483 l 1
 463 573 l 1
EndSplineSet
EndChar

StartChar: h
Encoding: 104 104 121
Width: 982
VWidth: 0
Flags: W
HStem: 905 95<365.775 672.326>
VStem: 732 111<663 839.263>
LayerCount: 2
Fore
SplineSet
262 1308 m 1
 151 1308 l 1
 151 0 l 1
 262 0 l 1
 262 815 l 1
 354 860 465 905 553 905 c 0
 655 905 732 847 732 669 c 2
 732 0 l 1
 843 0 l 1
 843 663 l 2
 843 901 725 1000 566 1000 c 0
 476 1000 365 968 262 911 c 1
 262 1308 l 1
EndSplineSet
EndChar

StartChar: hyphen
Encoding: 45 45 122
Width: 729
VWidth: 0
Flags: HW
LayerCount: 2
Fore
SplineSet
109 565 m 1
 109 449 l 1
 628 449 l 1
 628 565 l 1
 109 565 l 1
EndSplineSet
EndChar

StartChar: i
Encoding: 105 105 123
Width: 580
VWidth: 0
Flags: W
HStem: 1176 180<233.372 377.12>
VStem: 224 161<1183.42 1348.54>
LayerCount: 2
Fore
SplineSet
101 0 m 1
 512 0 l 1
 512 95 l 1
 367 95 l 1
 367 985 l 1
 110 985 l 1
 110 890 l 1
 255 890 l 1
 256 95 l 1
 101 95 l 1
 101 0 l 1
224 1264 m 0
 224 1208 255 1176 305 1176 c 0
 358 1176 385 1206 385 1266 c 0
 385 1324 358 1356 305 1356 c 0
 254 1356 224 1321 224 1264 c 0
EndSplineSet
EndChar

StartChar: iacute
Encoding: 237 237 124
Width: 601
VWidth: 0
Flags: HW
LayerCount: 2
Fore
SplineSet
116 0 m 1
 527 0 l 1
 527 117 l 1
 381 162 l 1
 381 985 l 1
 125 985 l 1
 125 868 l 1
 270 868 l 1
 270 162 l 1
 116 117 l 1
 116 0 l 1
119 1247 m 1
 172 1182 l 1
 494 1415 l 1
 416 1507 l 1
 119 1247 l 1
EndSplineSet
EndChar

StartChar: icircumflex
Encoding: 238 238 125
Width: 615
VWidth: 0
Flags: HW
LayerCount: 2
Fore
SplineSet
114 0 m 1
 525 0 l 1
 525 117 l 1
 379 162 l 1
 379 985 l 1
 123 985 l 1
 123 868 l 1
 268 868 l 1
 268 162 l 1
 114 117 l 1
 114 0 l 1
305 1440 m 1
 453 1182 l 1
 567 1182 l 1
 355 1516 l 1
 256 1516 l 1
 43 1182 l 1
 158 1182 l 1
 305 1440 l 1
EndSplineSet
EndChar

StartChar: idieresis
Encoding: 239 239 126
Width: 632
VWidth: 0
Flags: HW
LayerCount: 2
Fore
SplineSet
123 0 m 1
 534 0 l 1
 534 117 l 1
 388 162 l 1
 388 985 l 1
 132 985 l 1
 132 868 l 1
 277 868 l 1
 277 162 l 1
 123 117 l 1
 123 0 l 1
73 1268 m 0
 73 1218 99 1186 145 1186 c 0
 191 1186 216 1219 216 1268 c 0
 216 1320 194 1352 145 1352 c 0
 99 1352 73 1318 73 1268 c 0
423 1268 m 0
 423 1219 450 1186 495 1186 c 0
 540 1186 569 1220 569 1268 c 0
 569 1317 541 1352 495 1352 c 0
 448 1352 423 1318 423 1268 c 0
EndSplineSet
EndChar

StartChar: igrave
Encoding: 236 236 127
Width: 602
VWidth: 0
Flags: HW
LayerCount: 2
Fore
SplineSet
113 0 m 1
 524 0 l 1
 524 117 l 1
 378 162 l 1
 378 985 l 1
 122 985 l 1
 122 868 l 1
 267 868 l 1
 267 162 l 1
 113 117 l 1
 113 0 l 1
470 1386 m 1
 174 1368 l 1
 150 1290 l 1
 472 1309 l 1
 470 1386 l 1
EndSplineSet
EndChar

StartChar: infinity
Encoding: 8734 8734 128
Width: 1276
VWidth: 0
Flags: HW
LayerCount: 2
Fore
SplineSet
945 954 m 1
 777 954 709 835 652 707 c 1
 590 838 530 956 355 956 c 0
 176 956 101 804 101 602 c 0
 101 407 171 250 345 250 c 0
 510 250 580 376 641 498 c 1
 663 455 685 418 705 387 c 0
 756 308 816 249 934 249 c 0
 971 249 1004 257 1034 272 c 0
 1130 322 1178 441 1178 599 c 0
 1178 796 1120 953 946 953 c 1
 945 954 l 1
198 599 m 1
 198 731 237 857 354 857 c 0
 416 857 453 837 486 800 c 0
 534 747 563 678 598 598 c 1
 579 557 561 521 544 490 c 0
 506 418 458 347 359 349 c 1
 242 349 199 460 199 599 c 1
 198 599 l 1
1082 597 m 1
 1082 465 1041 349 930 349 c 0
 872 349 839 372 807 408 c 1
 761 462 732 532 697 612 c 1
 716 652 733 687 750 718 c 0
 787 789 833 858 930 858 c 0
 1045 858 1081 744 1081 598 c 1
 1082 597 l 1
EndSplineSet
EndChar

StartChar: integral
Encoding: 8747 8747 129
Width: 725
VWidth: 0
Flags: HW
LayerCount: 2
Fore
SplineSet
307 1153 m 1
 307 822 317 467 317 135 c 0
 317 58 315 -7 308 -60 c 1
 294 -186 260 -279 137 -279 c 0
 102 -279 66 -270 40 -260 c 1
 15 -367 l 1
 50 -379 99 -387 146 -387 c 0
 389 -387 424 -147 424 133 c 0
 424 464 415 816 415 1147 c 0
 415 1219 417 1281 422 1334 c 0
 434 1467 468 1565 596 1565 c 0
 629 1565 662 1558 687 1548 c 1
 713 1651 l 1
 679 1663 636 1671 591 1671 c 0
 344 1671 308 1432 308 1153 c 1
 307 1153 l 1
EndSplineSet
EndChar

StartChar: j
Encoding: 106 106 130
Width: 596
VWidth: 0
Flags: HW
LayerCount: 2
Fore
SplineSet
179 -200 m 0
 128 -200 78 -189 31 -172 c 1
 15 -263 l 1
 75 -286 131 -295 183 -295 c 0
 359 -295 444 -169 444 30 c 2
 444 985 l 1
 117 985 l 1
 117 890 l 1
 333 890 l 1
 333 28 l 2
 333 -112 299 -200 179 -200 c 0
456 1262 m 0
 456 1325 433 1356 375 1356 c 0
 321 1356 294 1326 294 1266 c 0
 294 1205 321 1174 375 1174 c 0
 433 1174 456 1199 456 1262 c 0
EndSplineSet
EndChar

StartChar: k
Encoding: 107 107 131
Width: 889
VWidth: 0
Flags: HW
LayerCount: 2
Fore
SplineSet
257 475 m 1
 264 984 l 1
 264 1386 l 1
 153 1386 l 1
 153 0 l 1
 264 0 l 1
 264 426 l 1
 334 484 l 1
 337 477 346 462 362 438 c 1
 481.273529412 297 741 0 741 0 c 1
 876 0 l 1
 422 527 l 1
 848 992 l 1
 716 992 l 1
 716 992 411.397129187 644 258 477 c 1
 257 475 l 1
EndSplineSet
EndChar

StartChar: l
Encoding: 108 108 132
Width: 579
VWidth: 0
Flags: HW
LayerCount: 2
Fore
SplineSet
97 95 m 1
 97 0 l 1
 515 0 l 1
 515 95 l 1
 362 95 l 1
 362 1308 l 1
 100 1308 l 1
 100 1213 l 1
 252 1213 l 1
 252 95 l 1
 97 95 l 1
EndSplineSet
EndChar

StartChar: less
Encoding: 60 60 133
Width: 895
VWidth: 0
Flags: HW
LayerCount: 2
Fore
SplineSet
772 61 m 1
 827 150 l 1
 186 596 l 1
 829 1030 l 1
 772 1116 l 1
 61 629 l 1
 61 563 l 1
 772 61 l 1
EndSplineSet
EndChar

StartChar: lessequal
Encoding: 8804 8804 134
Width: 1015
VWidth: 0
Flags: HW
LayerCount: 2
Fore
SplineSet
71 680 m 1
 910 274 l 1
 931 369 l 1
 185 725 l 1
 931 1065 l 1
 910 1161 l 1
 71 768 l 1
 71 680 l 1
762 43 m 1
 891 49 l 1
 882 129 l 1
 238 129 l 1
 110 123 l 1
 119 43 l 1
 762 43 l 1
EndSplineSet
EndChar

StartChar: logicalnot
Encoding: 172 172 135
Width: 1054
VWidth: 0
Flags: HW
LayerCount: 2
Fore
SplineSet
815 322 m 1
 933 322 l 1
 933 831 l 1
 82 831 l 1
 82 725 l 1
 815 725 l 1
 815 322 l 1
EndSplineSet
EndChar

StartChar: lozenge
Encoding: 9674 9674 136
Width: 988
VWidth: 0
Flags: HW
LayerCount: 2
Fore
SplineSet
476 -33 m 1
 558 47 l 1
 931 721 l 1
 558 1399 l 1
 476 1477 l 1
 58 721 l 1
 196.666992188 469 336 217.666992188 476 -33 c 1
495 1305 m 1
 598 1108 706 917 811 723 c 1
 706 528 599 335 495 139 c 1
 391 336 283 528 178 723 c 1
 283 917 391 1108 495 1305 c 1
EndSplineSet
EndChar

StartChar: m
Encoding: 109 109 137
Width: 1360
VWidth: 0
Flags: HW
HStem: 905 95<330.778 582.868 813.888 1058.44>
VStem: 631 111<663 814> 1107 111<671 850.552>
LayerCount: 2
Fore
SplineSet
250 908 m 1
 245 985 l 1
 144 985 l 1
 144 0 l 1
 255 0 l 1
 255 820 l 1
 340.056994819 870 419.207253886 905 483 905 c 0
 572.050847458 905 631 843 631 668 c 2
 631 160 l 1
 742 160 l 1
 742 694 l 1
 733 814 l 1
 814.190243902 865 892.175609756 905 952 905 c 0
 1045 905 1107 845 1107 672 c 2
 1107 0 l 1
 1218 0 l 1
 1218 671 l 2
 1218 904 1113.07692308 1000 970 1000 c 0
 887.76744186 1000 792.88372093 960 698 891 c 1
 652.035714286 966 581.321428571 1000 500 1000 c 0
 420.930232558 1000 332.558139535 967 250 908 c 1
EndSplineSet
EndChar

StartChar: mu
Encoding: 181 181 138
Width: 948
VWidth: 0
Flags: HW
LayerCount: 2
Fore
SplineSet
110 -309 m 1
 208 -328 l 1
 238 -257 245 -174 245 -68 c 1
 239 55 l 1
 274 10 341 -23 418 -23 c 0
 545 -23 628 46 710 100 c 1
 716 0 l 1
 816 0 l 1
 816 985 l 1
 707 985 l 1
 707 414 l 2
 707 319 698 254 688 180 c 1
 610 131 540 92 431 92 c 0
 291 92 248 187 248 344 c 2
 248 985 l 1
 137 985 l 1
 137 -66 l 2
 137 -165 130 -235 109 -309 c 1
 110 -309 l 1
EndSplineSet
EndChar

StartChar: n
Encoding: 110 110 139
Width: 976
VWidth: 0
Flags: W
HStem: 905 95<354.785 665.326>
VStem: 725 111<663 839.263>
LayerCount: 2
Fore
SplineSet
250 908 m 1
 245 985 l 1
 144 985 l 1
 144 0 l 1
 255 0 l 1
 255 817 l 1
 347 862 458 905 546 905 c 0
 648 905 725 847 725 669 c 2
 725 0 l 1
 836 0 l 1
 836 663 l 2
 836 901 718 1000 559 1000 c 0
 467 1000 355 967 250 908 c 1
EndSplineSet
EndChar

StartChar: nine
Encoding: 57 57 140
Width: 915
VWidth: 0
Flags: HW
HStem: 1208 100<319.095 603.178> 467 97<298.476 590.837> -16 100<235 436.212>
VStem: 722 116<654.352 1050.09> 98 116<661.491 1091.16>
LayerCount: 2
Fore
SplineSet
715 577 m 1
 700 282 519 84 234 84 c 1
 235 -16 l 1
 627 -3 838 264 838 749 c 0
 838 1083 743 1308 467 1308 c 0
 234 1308 98 1145 98 871 c 0
 98 625 227 467 412 467 c 0
 502 467 607 501 715 577 c 1
722 679 m 1
 598 599 494 564 414 564 c 0
 284 564 214 685 214 870 c 0
 214 1080 289 1208 466 1208 c 0
 653 1208 722 1037 722 763 c 2
 722 679 l 1
EndSplineSet
EndChar

StartChar: notequal
Encoding: 8800 8800 141
Width: 1046
VWidth: 0
Flags: HW
LayerCount: 2
Fore
SplineSet
722 807 m 1
 865 1030 l 1
 793 1085 l 1
 617 807 l 1
 79 807 l 1
 79 715 l 1
 554 715 l 1
 379 428 l 1
 79 428 l 1
 79 334 l 1
 320 334 l 1
 174 111 l 1
 244 53 l 1
 422 334 l 1
 972 334 l 1
 972 428 l 1
 482 428 l 1
 663 715 l 1
 972 715 l 1
 972 807 l 1
 722 807 l 1
EndSplineSet
EndChar

StartChar: ntilde
Encoding: 241 241 142
Width: 967
VWidth: 0
Flags: HW
LayerCount: 2
Fore
SplineSet
550 1001 m 1
 420 1001 330 940 247 883 c 1
 242 985 l 1
 143 985 l 1
 143 0 l 1
 253 0 l 1
 253 510 l 2
 253 622 257 706 266 799 c 1
 329 838 388 871 476 882 c 0
 504 885 530 889 558 886 c 0
 675 872 717 788 717 640 c 2
 717 1 l 1
 829 1 l 1
 829 556 l 2
 829 582 828 605 827 624 c 0
 823 664 812 697 812 732 c 1
 807 902 713 1002 552 1002 c 1
 550 1001 l 1
207 1314 m 1
 276 1265 l 1
 295 1292 312 1313 328 1328 c 0
 344 1343 360 1351 375 1351 c 0
 386 1351 400 1345 418 1334 c 0
 436 1323 456 1311 477 1298 c 0
 510 1277 558 1245 603 1245 c 0
 630 1245 656 1255 683 1276 c 0
 710 1297 734 1331 755 1379 c 1
 692 1426 l 1
 673 1399 657 1379 642 1365 c 0
 628 1351 613 1344 600 1344 c 0
 590 1344 576 1349 558 1359 c 0
 540 1369 521 1380 500 1393 c 0
 466 1413 416 1443 369 1443 c 0
 342 1443 315 1433 286 1412 c 0
 257 1391 231 1357 207 1310 c 1
 207 1314 l 1
EndSplineSet
EndChar

StartChar: numbersign
Encoding: 35 35 143
Width: 956
VWidth: 0
Flags: HW
LayerCount: 2
Fore
SplineSet
102 1030 m 1
 100 928 l 1
 290 928 l 1
 247 553 l 1
 66 553 l 1
 66 449 l 1
 234 449 l 1
 192 92 l 1
 299 92 l 1
 339 449 l 1
 555 449 l 1
 513 92 l 1
 619 92 l 1
 660 449 l 1
 858 449 l 1
 858 553 l 1
 673 553 l 1
 714 928 l 1
 893 928 l 1
 893 1030 l 1
 726 1030 l 1
 763 1364 l 1
 660 1364 l 1
 621 1030 l 1
 406 1030 l 1
 444 1364 l 1
 339 1364 l 1
 300 1030 l 1
 102 1030 l 1
390 928 m 1
 614 928 l 1
 570 553 l 1
 348 553 l 1
 390 928 l 1
EndSplineSet
EndChar

StartChar: o
Encoding: 111 111 144
Width: 953
VWidth: 0
Flags: W
HStem: -16 95<321.776 618.224> 905 95<321.776 618.224>
VStem: 98 115<207.199 776.801> 727 115<207.199 776.801>
LayerCount: 2
Fore
SplineSet
470 79 m 0
 257 79 213 250 213 492 c 0
 213 734 257 905 470 905 c 0
 683 905 727 734 727 492 c 0
 727 250 683 79 470 79 c 0
470 -16 m 0
 750 -16 842 183 842 492 c 0
 842 801 750 1000 470 1000 c 0
 190 1000 98 801 98 492 c 0
 98 183 190 -16 470 -16 c 0
EndSplineSet
EndChar

StartChar: oacute
Encoding: 243 243 145
Width: 950
VWidth: 0
Flags: HW
LayerCount: 2
Fore
SplineSet
727 489 m 0
 727 250 680 92 471 92 c 0
 258 92 211 253 211 489 c 0
 211 725 256 889 469 889 c 0
 681 889 727 726 727 489 c 0
95 492 m 1
 95 182 188 -20 469 -20 c 0
 532 -20 586 -10 630 10 c 0
 787 81 842 237 842 492 c 0
 842 802 748 1001 468 1001 c 0
 188 1001 94 801 94 492 c 1
 95 492 l 1
286 1247 m 1
 339 1182 l 1
 659 1415 l 1
 580 1507 l 1
 286 1247 l 1
EndSplineSet
EndChar

StartChar: ocircumflex
Encoding: 244 244 146
Width: 951
VWidth: 0
Flags: HW
LayerCount: 2
Fore
SplineSet
727 489 m 0
 727 250 680 92 471 92 c 0
 258 92 211 253 211 489 c 0
 211 725 256 889 469 889 c 0
 681 889 727 726 727 489 c 0
95 492 m 1
 95 182 188 -20 469 -20 c 0
 532 -20 586 -10 630 10 c 0
 787 81 842 237 842 492 c 0
 842 802 748 1001 468 1001 c 0
 188 1001 94 801 94 492 c 1
 95 492 l 1
468 1440 m 1
 615 1182 l 1
 730 1182 l 1
 518 1516 l 1
 418 1516 l 1
 207 1182 l 1
 321 1182 l 1
 468 1440 l 1
EndSplineSet
EndChar

StartChar: odieresis
Encoding: 246 246 147
Width: 954
VWidth: 0
Flags: HW
LayerCount: 2
Fore
SplineSet
729 489 m 0
 729 250 682 92 473 92 c 0
 260 92 213 253 213 489 c 0
 213 725 258 889 471 889 c 0
 683 889 729 726 729 489 c 0
97 492 m 1
 97 182 190 -20 471 -20 c 0
 534 -20 588 -10 632 10 c 0
 789 81 844 237 844 492 c 0
 844 802 750 1001 470 1001 c 0
 190 1001 96 801 96 492 c 1
 97 492 l 1
216 1331 m 0
 216 1281 243 1247 288 1247 c 0
 335 1247 362 1280 362 1331 c 0
 362 1381 336 1413 288 1413 c 0
 244 1413 216 1379 216 1331 c 0
579 1331 m 0
 579 1281 606 1247 651 1247 c 0
 696 1247 724 1282 724 1331 c 0
 724 1380 697 1413 651 1413 c 0
 606 1413 579 1379 579 1331 c 0
EndSplineSet
EndChar

StartChar: oe
Encoding: 339 339 148
Width: 1279
VWidth: 0
Flags: HW
LayerCount: 2
Fore
SplineSet
990 563 m 1
 695 563 l 1
 699 698 717 793 775 866 c 1
 800 883 832 891 874 891 c 0
 1034 891 1039 738 1044 561 c 1
 990 563 l 1
402 889 m 2
 472 889 512 868 538 825 c 0
 546 811 552 793 558 772 c 1
 579 682 578 573 578 455 c 0
 578 317 571 183 508 121 c 1
 482 101 446 90 401 90 c 0
 343 90 301 107 277 142 c 0
 223 219 223 345 223 492 c 0
 223 580 226 649 233 700 c 0
 239 751 249 790 261 817 c 1
 287 865 328 889 401 889 c 2
 402 889 l 2
1159 561 m 1
 1159 713 1135 837 1078 913 c 1
 1036 972 972 1004 877 1004 c 0
 786 1004 721 972 683 920 c 1
 662 895 650 858 642 820 c 1
 611 932 543 1005 405 1005 c 0
 143 1005 105 788 105 490 c 0
 105 390 111 309 124 247 c 0
 157 80 218 -23 399 -23 c 0
 537 -23 631 49 645 186 c 1
 648 176 651 164 655 151 c 0
 686 43 770 -21 901 -21 c 0
 981 -21 1037 3 1089 29 c 1
 1118 45 1135 73 1152 111 c 1
 1096 195 l 1
 1087 162 1078 140 1055 129 c 0
 1011 110 966 94 904 94 c 0
 729 94 702 262 693 457 c 1
 1154 457 l 1
 1156 484 1157 537 1160 563 c 1
 1159 561 l 1
EndSplineSet
EndChar

StartChar: ograve
Encoding: 242 242 149
Width: 951
VWidth: 0
Flags: HW
LayerCount: 2
Fore
SplineSet
728 489 m 0
 728 250 681 92 472 92 c 0
 259 92 212 253 212 489 c 0
 212 725 257 889 470 889 c 0
 682 889 728 726 728 489 c 0
96 492 m 1
 96 182 189 -20 470 -20 c 0
 533 -20 587 -10 631 10 c 0
 788 81 843 237 843 492 c 0
 843 802 749 1001 469 1001 c 0
 189 1001 95 801 95 492 c 1
 96 492 l 1
657 1247 m 1
 361 1507 l 1
 281 1415 l 1
 604 1182 l 1
 657 1247 l 1
EndSplineSet
EndChar

StartChar: one
Encoding: 49 49 150
Width: 650
VWidth: 0
Flags: HW
LayerCount: 2
Fore
SplineSet
44 1154 m 1
 82 1061 l 1
 309 1167 l 1
 309 84 l 1
 95 84 l 1
 95 -16 l 1
 609 -16 l 1
 609 84 l 1
 423 84 l 1
 423 1285 l 1
 324 1285 l 1
 43 1155 l 1
 44 1154 l 1
EndSplineSet
EndChar

StartChar: ordfeminine
Encoding: 170 170 151
Width: 683
VWidth: 0
Flags: HW
LayerCount: 2
Fore
SplineSet
325 1264 m 1
 346 1264 l 2
 449 1264 458 1200 461 1083 c 1
 412 1083 371 1085 314 1085 c 1
 180 1079 93 1031 93 881 c 0
 93 752 162 680 281 680 c 0
 361 680 424 721 468 762 c 1
 471 729 481 700 501 683 c 1
 523 683 543 688 570 693 c 1
 563 789 l 1
 549 801 551 814 551 845 c 2
 551 1074 l 2
 551 1152 546 1218 524 1269 c 1
 492 1326 433 1353 344 1353 c 0
 240 1353 170 1324 114 1265 c 1
 156 1197 l 1
 192 1246 254 1259 324 1265 c 1
 325 1264 l 1
303 769 m 2
 221 769 185 796 185 886 c 0
 185 917 189 940 199 955 c 0
 240 1018 369 1000 461 1007 c 1
 461 863 l 1
 430 809 375 769 302 769 c 2
 303 769 l 2
EndSplineSet
EndChar

StartChar: ordmasculine
Encoding: 186 186 152
Width: 699
VWidth: 0
Flags: HW
LayerCount: 2
Fore
SplineSet
506 1016 m 0
 506 858 483 768 345 768 c 0
 213 768 187 864 187 1016 c 0
 187 1172 210 1264 345 1264 c 0
 480 1264 506 1172 506 1016 c 0
345 1350 m 1
 302 1350 266 1343 237 1329 c 0
 135 1279 95 1183 95 1015 c 0
 95 896 117 805 169 751 c 1
 206 708 266 679 345 679 c 0
 389 679 425 686 454 700 c 0
 557 751 598 847 598 1017 c 0
 598 1227 532 1349 345 1349 c 1
 345 1350 l 1
EndSplineSet
EndChar

StartChar: oslash
Encoding: 248 248 153
Width: 955
VWidth: 0
Flags: HW
LayerCount: 2
Fore
SplineSet
97 492 m 0
 97 328 123 208 178 119 c 1
 196 93 222 74 254 59 c 1
 201 -66 l 1
 287 -109 l 1
 335 10 l 1
 373 -10 418 -20 471 -20 c 0
 751 -20 845 176 845 492 c 0
 845 645 820 768 766 858 c 1
 750 881 724 901 696 915 c 1
 751 1051 l 1
 662 1092 l 1
 613 967 l 1
 573 989 529 1001 471 1001 c 0
 191 1001 97 801 97 492 c 0
570 862 m 1
 298 174 l 1
 222 225 213 347 213 489 c 0
 213 725 258 889 471 889 c 0
 510 889 545 878 571 862 c 1
 570 862 l 1
474 92 m 2
 434 92 401 100 377 117 c 1
 600 707 l 1
 629 733 653 756 676 786 c 1
 716 714 729 620 729 489 c 0
 729 250 682 92 473 92 c 2
 474 92 l 2
EndSplineSet
EndChar

StartChar: otilde
Encoding: 245 245 154
Width: 954
VWidth: 0
Flags: HW
LayerCount: 2
Fore
SplineSet
729 489 m 0
 729 250 682 92 473 92 c 0
 260 92 213 253 213 489 c 0
 213 725 258 889 471 889 c 0
 683 889 729 726 729 489 c 0
97 492 m 1
 97 182 190 -20 471 -20 c 0
 534 -20 588 -10 632 10 c 0
 789 81 844 237 844 492 c 0
 844 802 750 1001 470 1001 c 0
 190 1001 96 801 96 492 c 1
 97 492 l 1
199 1313 m 1
 267 1264 l 1
 284 1291 300 1312 317 1327 c 0
 333 1342 348 1350 363 1350 c 0
 375 1350 390 1344 408 1333 c 0
 426 1322 445 1310 466 1297 c 0
 499 1276 547 1244 593 1244 c 0
 620 1244 647 1254 673 1275 c 0
 699 1296 723 1330 743 1378 c 1
 680 1425 l 1
 661 1398 644 1378 630 1364 c 0
 615 1350 602 1343 589 1343 c 0
 579 1343 566 1348 549 1358 c 0
 532 1368 513 1379 492 1392 c 0
 458 1412 410 1442 363 1442 c 0
 336 1442 309 1432 280 1411 c 0
 251 1390 224 1356 200 1309 c 1
 199 1313 l 1
EndSplineSet
EndChar

StartChar: p
Encoding: 112 112 155
Width: 968
VWidth: 0
Flags: HW
LayerCount: 2
Fore
SplineSet
253 813 m 1
 361 876 438 905 509 905 c 0
 673 905 744 750 744 491 c 0
 744 212 676 78 492 78 c 0
 425 78 354 96 253 131 c 1
 253 813 l 1
859 493 m 0
 859 854 711 1000 523 1000 c 0
 431 1000 342 966 244 905 c 1
 229 994 l 1
 129 986 l 1
 142 816 l 1
 142 -389 l 1
 253 -389 l 1
 253 38 l 1
 350 1 424 -16 499 -16 c 0
 738 -16 859 166 859 493 c 0
EndSplineSet
EndChar

StartChar: paragraph
Encoding: 182 182 156
Width: 993
VWidth: 0
Flags: HW
LayerCount: 2
Fore
SplineSet
847 0 m 1
 847 1434 l 1
 782 1434 l 1
 782 0 l 1
 847 0 l 1
82 981 m 0
 82 901 90 834 106 781 c 0
 157 610 294 558 487 541 c 1
 487 0 l 1
 552 0 l 1
 552 1434 l 1
 487 1434 l 2
 207 1434 82 1293 82 981 c 0
487 1368 m 1
 487 606 l 1
 427 611 375 620 332 633 c 0
 199 674 147 780 147 972 c 0
 147 1055 154 1122 170 1173 c 0
 214 1321 316 1363 487 1367 c 1
 487 1368 l 1
EndSplineSet
EndChar

StartChar: parenleft
Encoding: 40 40 157
Width: 501
VWidth: 0
Flags: HW
LayerCount: 2
Fore
SplineSet
411 -307 m 1
 476 -231 l 1
 325 -6 226 261 226 648 c 0
 226 1039 325 1299 476 1528 c 1
 411 1604 l 1
 232 1366 108 1079 108 649 c 0
 108 220 231 -67 411 -305 c 1
 411 -307 l 1
EndSplineSet
EndChar

StartChar: parenright
Encoding: 41 41 158
Width: 501
VWidth: 0
Flags: HW
LayerCount: 2
Fore
SplineSet
26 -229 m 1
 90 -305 l 1
 267 -66 394 219 394 646 c 0
 394 1076 270 1361 90 1598 c 1
 26 1525 l 1
 177 1297 278 1035 278 646 c 0
 278 260 177 -4 26 -228 c 1
 26 -229 l 1
EndSplineSet
EndChar

StartChar: partialdiff
Encoding: 8706 8706 159
Width: 830
VWidth: 0
Flags: HW
LayerCount: 2
Fore
SplineSet
410 -14 m 1
 628 -14 737 128 737 412 c 0
 737 536 728 645 712 738 c 0
 661 1035 511 1186 278 1286 c 1
 237 1190 l 1
 305 1155 364 1126 419 1084 c 0
 536 994 584 857 629 683 c 1
 576 770 503 814 408 814 c 0
 195 814 88 678 88 407 c 0
 88 158 187 -13 410 -13 c 1
 410 -14 l 1
403 714 m 0
 565 714 629 578 629 396 c 0
 629 210 577 87 410 87 c 0
 267 87 195 194 195 407 c 0
 195 595 243 714 403 714 c 0
EndSplineSet
EndChar

StartChar: percent
Encoding: 37 37 160
Width: 1148
VWidth: 0
Flags: HW
LayerCount: 2
Fore
SplineSet
850 586 m 1
 815 586 782 579 754 565 c 0
 668 525 614 432 614 298 c 0
 614 129 698 11 850 11 c 0
 885 11 916 18 945 32 c 0
 1030 72 1085 165 1085 298 c 0
 1085 341 1079 380 1068 415 c 0
 1036 511 966 585 851 585 c 1
 850 586 l 1
988 298 m 0
 988 194 942 108 849 108 c 0
 754 108 712 195 712 302 c 0
 712 405 757 488 849 488 c 0
 942 488 988 402 988 298 c 0
298 1357 m 1
 263 1357 231 1350 202 1336 c 0
 116 1296 62 1203 62 1069 c 0
 62 900 147 782 298 782 c 0
 333 782 365 789 394 803 c 0
 478 843 532 936 532 1069 c 0
 532 1236 448 1356 298 1356 c 1
 298 1357 l 1
434 1069 m 0
 434 966 390 879 298 879 c 0
 203 879 161 964 161 1071 c 0
 161 1175 205 1260 298 1260 c 0
 390 1260 434 1172 434 1069 c 0
775 1368 m 1
 263 -10 l 1
 362 -25 l 1
 877 1356 l 1
 775 1368 l 1
EndSplineSet
EndChar

StartChar: period
Encoding: 46 46 161
Width: 431
VWidth: 0
Flags: HW
LayerCount: 2
Fore
SplineSet
116 240 m 1
 116 0 l 1
 315 0 l 1
 315 240 l 1
 116 240 l 1
EndSplineSet
EndChar

StartChar: periodcentered
Encoding: 183 183 162
Width: 377
VWidth: 0
Flags: HW
LayerCount: 2
Fore
SplineSet
274 614 m 0
 274 695 246 735 189 735 c 0
 134 735 106 696 106 618 c 0
 106 541 134 502 189 502 c 0
 254 502 274 539 274 614 c 0
EndSplineSet
EndChar

StartChar: perthousand
Encoding: 8240 8240 163
Width: 1347
VWidth: 0
Flags: HW
LayerCount: 2
Fore
SplineSet
1052 586 m 1
 1016 586 984 579 955 565 c 0
 872 524 819 433 819 300 c 0
 819 133 901 13 1052 13 c 0
 1087 13 1118 20 1146 34 c 0
 1230 74 1282 168 1282 301 c 0
 1282 467 1200 588 1052 588 c 1
 1052 586 l 1
1185 301 m 1
 1185 197 1142 111 1050 111 c 0
 955 111 917 199 917 305 c 1
 915 407 959 491 1049 491 c 0
 1141 491 1184 405 1184 301 c 1
 1185 301 l 1
297 1360 m 1
 262 1360 230 1353 201 1339 c 0
 116 1299 62 1206 62 1072 c 0
 62 903 146 785 297 785 c 0
 332 785 364 792 393 806 c 0
 477 846 531 939 531 1072 c 0
 531 1239 448 1359 297 1359 c 1
 297 1360 l 1
433 1072 m 0
 433 969 389 882 297 882 c 0
 202 882 161 967 161 1074 c 0
 161 1178 205 1263 297 1263 c 0
 389 1263 433 1175 433 1072 c 0
340 -22 m 1
 466 67 554 224 584 419 c 1
 606 575 577 719 506 795 c 1
 496 799 485 803 476 807 c 1
 350 717 260 562 230 366 c 1
 211 210 237 64 311 -9 c 1
 320 -16 331 -19 341 -25 c 1
 340 -22 l 1
298 561 m 1
 298 475 325 408 379 383 c 1
 645 441 876 541 1087 661 c 1
 1087 744 1057 812 1006 837 c 1
 741 778 508 682 299 562 c 1
 298 561 l 1
396 302 m 0
 396 194 438 108 531 108 c 0
 622 108 664 195 664 298 c 0
 664 401 622 488 531 488 c 0
 440 488 396 406 396 302 c 0
EndSplineSet
EndChar

StartChar: pi
Encoding: 960 960 164
Width: 1229
VWidth: 0
Flags: HW
LayerCount: 2
Fore
SplineSet
129 999 m 1
 138 897 l 1
 202 906 260 909 339 909 c 1
 333 599 316 284 285 0 c 1
 398 0 l 1
 427 284 446 599 451 909 c 1
 809 909 l 1
 809 270 l 2
 809 168 813 84 820 0 c 1
 933 0 l 1
 925 91 922 173 922 280 c 2
 922 910 l 1
 1100 910 l 1
 1105 1019 l 1
 398 1019 l 2
 294 1019 214 1015 130 1000 c 1
 129 999 l 1
EndSplineSet
EndChar

StartChar: plus
Encoding: 43 43 165
Width: 900
VWidth: 0
Flags: HW
LayerCount: 2
Fore
SplineSet
503 541 m 1
 837 541 l 1
 837 645 l 1
 503 645 l 1
 503 1010 l 1
 398 1010 l 1
 398 645 l 1
 63 645 l 1
 63 541 l 1
 398 541 l 1
 398 176 l 1
 503 176 l 1
 503 541 l 1
EndSplineSet
EndChar

StartChar: plusminus
Encoding: 177 177 166
Width: 1052
VWidth: 0
Flags: HW
LayerCount: 2
Fore
SplineSet
584 1042 m 1
 477 1042 l 1
 477 719 l 1
 94 719 l 1
 94 610 l 1
 477 610 l 1
 477 299 l 1
 584 299 l 1
 584 610 l 1
 967 610 l 1
 967 719 l 1
 584 719 l 1
 584 1042 l 1
94 188 m 1
 94 82 l 1
 967 82 l 1
 967 188 l 1
 94 188 l 1
EndSplineSet
EndChar

StartChar: product
Encoding: 8719 8719 167
Width: 1071
VWidth: 0
Flags: HW
LayerCount: 2
Fore
SplineSet
855 1260 m 1
 1034 1260 l 1
 1034 1372 l 1
 42 1372 l 1
 42 1260 l 1
 218 1260 l 1
 218 -96 l 1
 332 -96 l 1
 332 1260 l 1
 741 1260 l 1
 741 -96 l 1
 855 -96 l 1
 855 1260 l 1
EndSplineSet
EndChar

StartChar: q
Encoding: 113 113 168
Width: 964
VWidth: 0
Flags: HW
LayerCount: 2
Fore
SplineSet
96 493 m 0
 96 166 217 -16 456 -16 c 0
 531 -16 605 1 702 38 c 1
 702 -389 l 1
 813 -389 l 1
 813 816 l 1
 826 986 l 1
 726 994 l 1
 711 905 l 1
 613 966 524 1000 432 1000 c 0
 244 1000 96 854 96 493 c 0
702 131 m 1
 601 96 530 78 463 78 c 0
 279 78 211 212 211 491 c 0
 211 750 282 905 446 905 c 0
 517 905 594 876 702 813 c 1
 702 131 l 1
EndSplineSet
EndChar

StartChar: question
Encoding: 63 63 169
Width: 769
VWidth: 0
Flags: HW
LayerCount: 2
Fore
SplineSet
286 334 m 1
 321 337 356 334 390 337 c 1
 388 371 386 408 386 443 c 0
 386 549 404 588 455 643 c 0
 475 665 502 693 538 728 c 1
 626 820 701 896 701 1082 c 0
 701 1107 699 1130 694 1151 c 0
 663 1301 552 1390 384 1390 c 0
 287 1390 219 1360 162 1322 c 1
 123 1294 72 1253 37 1209 c 1
 97 1119 l 1
 123 1146 146 1168 169 1185 c 0
 232 1233 282 1270 388 1270 c 0
 429 1270 462 1262 488 1247 c 0
 546 1214 582 1170 582 1075 c 0
 582 1042 574 1010 560 979 c 0
 511 876 427 796 360 711 c 0
 318 657 275 602 275 510 c 2
 275 473 l 2
 275 426 278 370 287 336 c 1
 286 334 l 1
258 195 m 1
 258 -6 l 1
 426 -6 l 1
 426 195 l 1
 258 195 l 1
EndSplineSet
EndChar

StartChar: questiondown
Encoding: 191 191 170
Width: 744
VWidth: 0
Flags: HW
LayerCount: 2
Fore
SplineSet
479 768 m 1
 426 768 l 2
 409 768 392 767 375 766 c 1
 375 729 377 694 377 659 c 0
 377 552 359 512 308 457 c 0
 288 435 260 407 225 373 c 1
 137 282 61 205 61 20 c 0
 61 -5 63 -28 67 -49 c 0
 100 -199 211 -286 380 -286 c 0
 452 -286 509 -270 557 -244 c 0
 621 -208 678 -164 723 -105 c 1
 662 -15 l 1
 638 -41 614 -62 592 -79 c 0
 527 -127 481 -163 372 -163 c 0
 333 -163 300 -156 274 -142 c 0
 216 -111 179 -63 179 31 c 0
 179 64 186 96 200 127 c 0
 249 231 334 311 400 396 c 0
 435 441 479 496 484 565 c 1
 487 585 488 607 487 631 c 1
 487 679 483 734 476 770 c 1
 479 768 l 1
503 911 m 1
 503 1112 l 1
 335 1112 l 1
 335 911 l 1
 503 911 l 1
EndSplineSet
EndChar

StartChar: quotedbl
Encoding: 34 34 171
Width: 619
VWidth: 0
Flags: HW
LayerCount: 2
Fore
SplineSet
239 1229 m 1
 239 1411 l 1
 118 1411 l 1
 118 1229 l 1
 127 950 l 1
 230 950 l 1
 239 1229 l 1
503 1217 m 1
 503 1411 l 1
 381 1411 l 1
 381 1249 l 1
 392 950 l 1
 496 950 l 1
 503 1217 l 1
EndSplineSet
EndChar

StartChar: quotedblleft
Encoding: 8220 8220 172
Width: 655
VWidth: 0
Flags: HW
LayerCount: 2
Fore
SplineSet
296 1382 m 1
 227 1415 l 1
 190 1335 149 1247 127 1145 c 2
 96 1006 l 1
 227 981 l 1
 257 1159 l 1
 247 1217 l 1
 256 1284 277 1327 295 1382 c 1
 296 1382 l 1
517 1204 m 1
 526 1264 545 1311 562 1358 c 1
 496 1391 l 1
 456 1308 412 1213 388 1108 c 1
 362 981 l 1
 494 956 l 1
 519 1122 l 1
 519 1151 517 1175 517 1204 c 1
EndSplineSet
EndChar

StartChar: quotedblright
Encoding: 8221 8221 173
Width: 654
VWidth: 0
Flags: HW
LayerCount: 2
Fore
SplineSet
409 1130 m 1
 401 1071 382 1031 366 985 c 1
 435 952 l 1
 473 1032 515 1125 536 1229 c 1
 565 1362 l 1
 435 1384 l 1
 410 1227 l 1
 410 1195 409 1162 409 1130 c 1
141 1155 m 1
 132 1098 114 1057 99 1010 c 1
 166 977 l 1
 204 1058 248 1150 268 1253 c 1
 298 1386 l 1
 167 1411 l 1
 143 1251 l 1
 143 1219 141 1187 141 1155 c 1
EndSplineSet
EndChar

StartChar: quoteleft
Encoding: 8216 8216 174
Width: 393
VWidth: 0
Flags: HW
LayerCount: 2
Fore
SplineSet
298 1364 m 1
 231 1397 l 1
 194 1317 152 1230 131 1128 c 1
 99 987 l 1
 231 963 l 1
 259 1147 l 1
 249 1194 l 1
 259 1263 279 1308 298 1364 c 1
EndSplineSet
EndChar

StartChar: quoteright
Encoding: 8217 8217 175
Width: 389
VWidth: 0
Flags: HW
LayerCount: 2
Fore
SplineSet
102 1006 m 1
 169 973 l 1
 206 1047 246 1134 265 1233 c 1
 300 1382 l 1
 170 1407 l 1
 143 1239 l 1
 145 1159 l 1
 136 1097 118 1056 101 1006 c 1
 102 1006 l 1
EndSplineSet
EndChar

StartChar: quotesingle
Encoding: 39 39 176
Width: 356
VWidth: 0
Flags: HW
LayerCount: 2
Fore
SplineSet
240 1212 m 1
 240 1411 l 1
 117 1411 l 1
 117 1239 l 1
 128 950 l 1
 231 950 l 1
 240 1212 l 1
EndSplineSet
EndChar

StartChar: r
Encoding: 114 114 177
Width: 610
VWidth: 0
Flags: W
HStem: 891 109<356.169 533>
VStem: 144 111<804 833.82>
LayerCount: 2
Fore
SplineSet
255 0 m 1
 255 804 l 1
 306 847 417 891 533 891 c 1
 533 1000 l 1
 439 996 325 953 256 899 c 1
 251 985 l 1
 144 985 l 1
 144 0 l 1
 255 0 l 1
EndSplineSet
EndChar

StartChar: radical
Encoding: 8730 8730 178
Width: 961
VWidth: 0
Flags: HW
LayerCount: 2
Fore
SplineSet
609 -8 m 1
 918 1372 l 1
 815 1372 l 1
 723 947 627 528 539 98 c 1
 491 170 l 1
 309 885 l 1
 47 846 l 1
 56 756 l 1
 228 778 l 1
 439 -8 l 1
 609 -8 l 1
EndSplineSet
EndChar

StartChar: registered
Encoding: 174 174 179
Width: 1162
VWidth: 0
Flags: HW
LayerCount: 2
Fore
SplineSet
1062 874 m 1
 1062 951 1050 1022 1026 1087 c 0
 958 1271 807 1405 578 1405 c 0
 508 1405 443 1392 384 1366 c 0
 219 1293 95 1127 95 874 c 0
 95 796 107 724 130 659 c 0
 197 475 349 340 578 340 c 0
 649 340 714 353 773 379 c 0
 940 452 1063 619 1063 873 c 1
 1062 874 l 1
973 871 m 1
 973 806 963 746 943 692 c 0
 888 542 765 428 578 428 c 0
 520 428 467 439 418 461 c 0
 283 523 184 664 184 874 c 0
 184 939 193 999 213 1053 c 0
 268 1205 391 1319 579 1319 c 0
 636 1319 689 1308 738 1286 c 0
 876 1224 975 1083 975 871 c 1
 973 871 l 1
560 1187 m 2
 403 1187 l 1
 403 564 l 1
 481 564 l 1
 481 808 l 1
 589 808 l 1
 631 729 671 645 706 558 c 1
 785 572 l 1
 764 622 l 2
 734 692 699 759 665 822 c 1
 742 839 790 899 790 1000 c 0
 790 1153 698 1187 560 1187 c 2
713 996 m 2
 713 972 710 953 705 939 c 0
 684 884 615 887 541 887 c 2
 481 887 l 1
 481 1112 l 1
 546 1112 l 2
 578 1112 604 1111 625 1109 c 0
 688 1103 713 1074 713 997 c 2
 713 996 l 2
EndSplineSet
EndChar

StartChar: s
Encoding: 115 115 180
Width: 826
VWidth: 0
Flags: W
HStem: -16 95<181.104 554.238> 905 95<271.362 639.102>
VStem: 100 111<638.691 847.978> 612 111<137.079 368.66>
LayerCount: 2
Fore
SplineSet
407 79 m 0
 328 79 237 102 159 132 c 1
 137 40 l 1
 212 5 305 -16 395 -16 c 0
 565 -16 723 60 723 260 c 0
 723 611 211 489 211 735 c 0
 211 862 320 905 433 905 c 0
 517 905 604 882 654 852 c 1
 676 944 l 1
 600 979 507 1000 418 1000 c 0
 252 1000 100 928 100 742 c 0
 100 381 612 538 612 254 c 0
 612 124 510 79 407 79 c 0
EndSplineSet
EndChar

StartChar: section
Encoding: 167 167 181
Width: 861
VWidth: 0
Flags: HW
LayerCount: 2
Fore
SplineSet
572 446 m 1
 533 465 489 483 445 500 c 1
 336 545 l 1
 269 570 218 601 218 698 c 0
 218 780 266 827 319 859 c 1
 382 827 463 802 529 771 c 0
 588 743 658 706 661 617 c 1
 661 535 607 489 572 444 c 1
 572 446 l 1
734 199 m 1
 734 293 706 354 653 395 c 1
 715 446 769 511 769 616 c 0
 769 791 679 836 559 884 c 0
 510 904 452 929 384 959 c 1
 311 990 242 1025 242 1133 c 0
 242 1261 319 1303 445 1303 c 0
 547 1303 617 1273 688 1225 c 1
 734 1313 l 1
 663 1377 572 1407 443 1407 c 0
 260 1407 131 1327 131 1124 c 0
 131 1013 175 948 246 903 c 1
 171 861 107 796 107 682 c 0
 107 578 139 527 199 489 c 0
 294 428 404 393 516 339 c 1
 580 310 623 284 623 187 c 0
 623 66 541 26 426 26 c 0
 307 26 226 63 151 116 c 1
 108 26 l 1
 189 -51 283 -79 424 -79 c 0
 611 -79 735 0 735 200 c 1
 734 199 l 1
EndSplineSet
EndChar

StartChar: semicolon
Encoding: 59 59 182
Width: 433
VWidth: 0
Flags: HW
LayerCount: 2
Fore
SplineSet
130 862 m 1
 130 649 l 1
 305 649 l 1
 305 862 l 1
 130 862 l 1
135 305 m 1
 135 86 l 1
 209 86 l 1
 202 1 161 -73 123 -133 c 1
 169 -186 l 1
 234 -111 306 -15 306 129 c 2
 306 305 l 1
 135 305 l 1
EndSplineSet
EndChar

StartChar: seven
Encoding: 55 55 183
Width: 770
VWidth: 0
Flags: HW
LayerCount: 2
Fore
SplineSet
48 1300 m 2
 48 1299 47 1184 47 1184 c 1
 597 1184 l 1
 585 1140 567 1090 543 1035 c 0
 460 845 362 651 290 445 c 0
 245 316 202 167 199 3 c 1
 321 3 l 1
 321 64 329 128 343 195 c 0
 416 544 577 836 700 1129 c 0
 708 1150 711 1167 711 1181 c 2
 711 1301 l 1
 48 1300 l 2
EndSplineSet
EndChar

StartChar: six
Encoding: 54 54 184
Width: 915
VWidth: 0
Flags: W
HStem: -16 100<332.822 616.905> 728 97<345.163 637.524> 1208 100<499.788 701>
VStem: 98 116<241.914 637.648> 722 116<200.843 630.509>
LayerCount: 2
Fore
SplineSet
221 715 m 1
 236 1010 417 1208 702 1208 c 1
 701 1308 l 1
 309 1295 98 1028 98 543 c 0
 98 209 193 -16 469 -16 c 0
 702 -16 838 147 838 421 c 0
 838 667 709 825 524 825 c 0
 434 825 329 791 221 715 c 1
214 613 m 1
 338 693 442 728 522 728 c 0
 652 728 722 607 722 422 c 0
 722 212 647 84 470 84 c 0
 283 84 214 255 214 529 c 2
 214 613 l 1
EndSplineSet
EndChar

StartChar: slash
Encoding: 47 47 185
Width: 763
VWidth: 0
Flags: HW
LayerCount: 2
Fore
SplineSet
661 1497 m 1
 29 -84 l 1
 108 -121 l 1
 742 1458 l 1
 661 1497 l 1
EndSplineSet
EndChar

StartChar: sterling
Encoding: 163 163 187
Width: 911
VWidth: 0
Flags: HW
LayerCount: 2
Fore
SplineSet
332 41 m 1
 380 41 435 22 478 9 c 0
 523 -4 579 -23 629 -23 c 0
 728 -23 805 8 866 55 c 1
 825 162 l 1
 783 127 723 95 652 92 c 0
 644 91 636 91 627 92 c 0
 593 96 562 104 530 112 c 0
 479 126 426 147 373 150 c 1
 358 153 345 150 330 150 c 1
 301 147 275 140 251 129 c 1
 251 130 250 131 249 132 c 1
 322 207 376 286 379 419 c 1
 376 487 357 556 350 615 c 1
 665 615 l 1
 670 724 l 1
 328 724 l 1
 311 791 303 865 306 950 c 1
 309 1123 361 1209 510 1217 c 1
 580 1217 l 1
 661 1211 709 1178 755 1128 c 1
 797 1221 l 1
 742 1291 679 1325 569 1328 c 1
 546 1330 525 1330 504 1328 c 1
 296 1320 196 1189 193 947 c 0
 192 872 200 798 218 726 c 1
 85 726 l 1
 85 617 l 1
 240 617 l 1
 258 540 267 477 267 429 c 0
 265 257 172 178 80 97 c 1
 130 -15 l 1
 192 13 248 42 333 42 c 1
 332 41 l 1
EndSplineSet
EndChar

StartChar: summation
Encoding: 8721 8721 188
Width: 876
VWidth: 0
Flags: HW
LayerCount: 2
Fore
SplineSet
54 -168 m 1
 837 -168 l 1
 837 -55 l 1
 196 -55 l 1
 196 -51 l 1
 607 637 l 1
 209 1260 l 1
 209 1264 l 1
 828 1264 l 1
 828 1374 l 1
 65 1374 l 1
 65 1264 l 1
 469 635 l 1
 54 -57 l 1
 54 -168 l 1
EndSplineSet
EndChar

StartChar: t
Encoding: 116 116 189
Width: 730
VWidth: 0
Flags: W
HStem: -17 96<364.38 635.519>
VStem: 205 111<131.716 398 985 1143.89> 229 87<1060.33 1251>
LayerCount: 2
Fore
SplineSet
316 890 m 1xa0
 624 890 l 1
 624 985 l 1
 316 985 l 1xc0
 316 1267 l 1
 229 1251 l 1xa0
 209 985 l 1
 52 985 l 1
 52 890 l 1
 205 890 l 1
 205 398 l 2
 205 145 238 -17 456 -17 c 0
 507 -17 571 -9 649 18 c 1
 629 107 l 1
 558 89 504 79 462 79 c 0
 358 79 316 147 316 396 c 2xc0
 316 890 l 1xa0
EndSplineSet
EndChar

StartChar: three
Encoding: 51 51 190
Width: 883
VWidth: 0
Flags: HW
LayerCount: 2
Fore
SplineSet
502 691 m 1
 646 734 752 810 752 994 c 0
 752 1200 604 1308 381 1308 c 0
 268 1308 171 1287 65 1252 c 1
 92 1157 l 1
 153 1178 265 1208 386 1208 c 0
 542 1208 636 1131 636 985 c 0
 636 796 502 749 222 713 c 1
 231 610 l 1
 278 621 331 627 383 627 c 0
 535 627 688 545 688 360 c 0
 688 149 544 83 379 83 c 0
 283 83 185 105 92 135 c 1
 65 40 l 1
 158 5 268 -16 374 -16 c 0
 597 -16 804 79 804 349 c 0
 804 536 659 677 502 691 c 1
EndSplineSet
EndChar

StartChar: trademark
Encoding: 8482 8482 191
Width: 1038
VWidth: 0
Flags: HW
LayerCount: 2
Fore
SplineSet
838 655 m 1
 906 655 l 1
 906 1268 l 1
 842 1268 l 1
 685 846 l 1
 683 846 l 1
 532 1268 l 1
 467 1268 l 1
 467 655 l 1
 537 655 l 1
 537 1057 l 1
 541 1057 l 1
 657 737 l 1
 710 737 l 1
 833 1057 l 1
 838 1057 l 1
 838 655 l 1
268 1192 m 1
 399 1192 l 1
 399 1268 l 1
 58 1268 l 1
 58 1192 l 1
 193 1192 l 1
 193 655 l 1
 268 655 l 1
 268 1192 l 1
EndSplineSet
EndChar

StartChar: two
Encoding: 50 50 192
Width: 852
VWidth: 0
Flags: HW
LayerCount: 2
Fore
SplineSet
376 1208 m 0
 584 1208 645 1096 645 970 c 0
 645 597 77 483 70 0 c 1
 752 0 l 1
 752 100 l 1
 197 100 l 1
 252 428 763 580 763 971 c 0
 763 1144 647 1308 392 1308 c 0
 252 1308 179 1285 84 1254 c 1
 111 1157 l 1
 111 1157 242 1208 376 1208 c 0
EndSplineSet
EndChar

StartChar: u
Encoding: 117 117 193
Width: 955
VWidth: 0
Flags: W
HStem: -16 95<291.674 593.071>
VStem: 121 111<144.737 321>
LayerCount: 2
Fore
SplineSet
706 0 m 1
 807 0 l 1
 807 985 l 1
 696 985 l 1
 696 169 l 1
 604 124 499 79 411 79 c 0
 309 79 232 137 232 315 c 2
 232 985 l 1
 121 985 l 1
 121 321 l 2
 121 83 239 -16 398 -16 c 0
 490 -16 596 17 701 76 c 1
 706 0 l 1
EndSplineSet
EndChar

StartChar: uacute
Encoding: 250 250 194
Width: 948
VWidth: 0
Flags: HW
LayerCount: 2
Fore
SplineSet
695 104 m 1
 701 0 l 1
 802 0 l 1
 802 985 l 1
 691 985 l 1
 691 397 l 2
 691 309 684 252 675 184 c 1
 602 139 525 92 416 92 c 0
 245 92 228 217 228 410 c 2
 228 985 l 1
 119 985 l 1
 119 336 l 2
 119 116 193 -20 393 -20 c 0
 524 -20 614 46 695 104 c 1
284 1247 m 1
 337 1182 l 1
 675 1415 l 1
 581 1507 l 1
 284 1247 l 1
EndSplineSet
EndChar

StartChar: ucircumflex
Encoding: 251 251 195
Width: 949
VWidth: 0
Flags: HW
LayerCount: 2
Fore
SplineSet
696 104 m 1
 702 0 l 1
 803 0 l 1
 803 985 l 1
 692 985 l 1
 692 397 l 2
 692 309 685 252 676 184 c 1
 603 139 526 92 417 92 c 0
 246 92 229 217 229 410 c 2
 229 985 l 1
 120 985 l 1
 120 336 l 2
 120 116 194 -20 394 -20 c 0
 525 -20 615 46 696 104 c 1
462 1440 m 1
 609 1182 l 1
 723 1182 l 1
 512 1516 l 1
 412 1516 l 1
 201 1182 l 1
 315 1182 l 1
 462 1440 l 1
EndSplineSet
EndChar

StartChar: udieresis
Encoding: 252 252 196
Width: 952
VWidth: 0
Flags: HW
LayerCount: 2
Fore
SplineSet
698 104 m 1
 704 0 l 1
 805 0 l 1
 805 985 l 1
 694 985 l 1
 694 397 l 2
 694 309 687 252 678 184 c 1
 605 139 528 92 419 92 c 0
 248 92 231 217 231 410 c 2
 231 985 l 1
 122 985 l 1
 122 336 l 2
 122 116 196 -20 396 -20 c 0
 527 -20 617 46 698 104 c 1
210 1331 m 0
 210 1281 237 1247 282 1247 c 0
 329 1247 354 1280 354 1331 c 0
 354 1381 329 1413 282 1413 c 0
 238 1413 210 1379 210 1331 c 0
572 1331 m 0
 572 1281 599 1247 644 1247 c 0
 690 1247 716 1282 716 1331 c 0
 716 1379 689 1413 644 1413 c 0
 598 1413 572 1380 572 1331 c 0
EndSplineSet
EndChar

StartChar: ugrave
Encoding: 249 249 197
Width: 948
VWidth: 0
Flags: HW
LayerCount: 2
Fore
SplineSet
695 104 m 1
 701 0 l 1
 802 0 l 1
 802 985 l 1
 691 985 l 1
 691 397 l 2
 691 309 684 252 675 184 c 1
 602 139 525 92 416 92 c 0
 245 92 228 217 228 410 c 2
 228 985 l 1
 119 985 l 1
 119 336 l 2
 119 116 193 -20 393 -20 c 0
 524 -20 614 46 695 104 c 1
649 1247 m 1
 353 1507 l 1
 273 1415 l 1
 596 1182 l 1
 649 1247 l 1
EndSplineSet
EndChar

StartChar: underscore
Encoding: 95 95 198
Width: 1182
VWidth: 0
Flags: HW
LayerCount: 2
Fore
SplineSet
155 -219 m 1
 1023 -219 l 1
 1023 -125 l 1
 155 -125 l 1
 155 -219 l 1
EndSplineSet
EndChar

StartChar: v
Encoding: 118 118 199
Width: 852
VWidth: 0
Flags: W
LayerCount: 2
Fore
SplineSet
424 112 m 1
 175 985 l 1
 58 985 l 1
 356 0 l 1
 493 0 l 1
 775 985 l 1
 659 985 l 1
 424 112 l 1
EndSplineSet
EndChar

StartChar: w
Encoding: 119 119 200
Width: 1100
VWidth: 0
Flags: HW
LayerCount: 2
Fore
SplineSet
76 985 m 1
 229 0 l 1
 411 0 l 1
 453 189 497 376 538 567 c 1
 543 567 l 1
 573 424 l 1
 668 0 l 1
 853 0 l 1
 1007 985 l 1
 897 985 l 1
 770 106 l 1
 729 188 l 1
 598 727 l 1
 484 727 l 1
 386 322 l 2
 375 277 364 232 353 188 c 1
 314 106 l 1
 273 401 228 692 185 985 c 1
 76 985 l 1
EndSplineSet
EndChar

StartChar: x
Encoding: 120 120 201
Width: 880
VWidth: 0
Flags: HW
LayerCount: 2
Fore
SplineSet
93 985 m 1
 387 504 l 1
 81 0 l 1
 209 0 l 1
 444 410 l 1
 682 0 l 1
 809 0 l 1
 504 504 l 1
 790 985 l 1
 666 985 l 1
 444 596 l 1
 219 985 l 1
 93 985 l 1
EndSplineSet
EndChar

StartChar: y
Encoding: 121 121 202
Width: 920
VWidth: 0
Flags: W
HStem: -393 102<173.541 399.077>
LayerCount: 2
Fore
SplineSet
178 -265 m 1
 161 -358 l 1
 213 -378 268 -393 328 -393 c 0
 499.27251647 -393 540.499559662 -212.179194913 577 -65 c 2
 840 986 l 1
 720 986 l 1
 515 144 l 1
 418 147 l 1
 336 438 261 703 182 986 c 1
 56 986 l 1
 159.100719424 658.838709677 252.09352518 367.572858732 337 64 c 5
 501 64 l 1
 474 -36 l 1
 450.815713795 -135.060131965 424.877711936 -291 315 -291 c 0
 267 -291 226 -278 179 -264 c 1
 178 -265 l 1
EndSplineSet
EndChar

StartChar: ydieresis
Encoding: 255 255 203
Width: 893
VWidth: 0
Flags: HW
LayerCount: 2
Fore
SplineSet
202 -391 m 1
 274 -391 335 -391 391 -371 c 1
 463 -341 506 -270 540 -196 c 0
 594 -78 640 38 663 197 c 1
 807 985 l 1
 688 985 l 1
 596 467 l 1
 584 383 563 314 538 248 c 1
 518 200 497 131 433 131 c 1
 382 173 354 231 330 297 c 0
 306 364 288 422 274 510 c 1
 243 670 216 824 186 985 c 1
 67 985 l 1
 160 494 l 2
 166 461 172 430 178 402 c 0
 214 249 265 108 373 30 c 1
 391 26 406 24 418 23 c 0
 446 22 466 30 487 30 c 1
 457 -89 l 1
 457 -119 456 -148 446 -166 c 0
 425 -206 402 -239 354 -251 c 1
 314 -271 277 -278 229 -286 c 0
 221 -288 211 -287 196 -283 c 0
 182 -279 165 -268 146 -249 c 1
 121 -335 l 1
 141 -367 168 -382 202 -391 c 1
193 1331 m 0
 193 1281 220 1247 265 1247 c 0
 312 1247 337 1280 337 1331 c 0
 337 1381 313 1413 265 1413 c 0
 220 1413 193 1380 193 1331 c 0
555 1331 m 0
 555 1281 581 1247 626 1247 c 0
 673 1247 700 1281 700 1331 c 0
 700 1380 673 1413 626 1413 c 0
 581 1413 555 1379 555 1331 c 0
EndSplineSet
EndChar

StartChar: yen
Encoding: 165 165 204
Width: 934
VWidth: 0
Flags: HW
LayerCount: 2
Fore
SplineSet
528 377 m 1
 808 377 l 1
 808 481 l 1
 528 481 l 1
 528 582 l 1
 539 645 l 1
 808 645 l 1
 808 750 l 1
 586 750 l 1
 903 1366 l 1
 778 1366 l 1
 678 1162 573 963 477 755 c 1
 472 755 l 1
 429 843 l 2
 343 1018 257 1193 171 1368 c 1
 38 1368 l 1
 359 752 l 1
 134 752 l 1
 134 647 l 1
 405 647 l 1
 418 584 l 1
 418 483 l 1
 134 483 l 1
 134 379 l 1
 418 379 l 1
 418 2 l 1
 528 2 l 1
 528 377 l 1
EndSplineSet
EndChar

StartChar: z
Encoding: 122 122 205
Width: 799
VWidth: 0
Flags: HW
LayerCount: 2
Fore
SplineSet
136 985 m 1
 136 890 l 1
 560 890 l 1
 103 102 l 1
 117 0 l 1
 701 0 l 1
 701 95 l 1
 226 95 l 1
 686 900 l 1
 676 985 l 1
 136 985 l 1
EndSplineSet
EndChar

StartChar: zero
Encoding: 48 48 206
Width: 965
VWidth: 0
Flags: W
HStem: -16 100<349.295 615.414> 1208 100<351.116 617.903>
VStem: 110 116<240.253 1046.26> 740 116<250.341 1053.99>
LayerCount: 2
Fore
SplineSet
485 1208 m 0
 728 1208 740 931 740 650 c 0
 740 362 720 84 482 84 c 0
 239 84 226 369 226 646 c 0
 226 947 247 1208 485 1208 c 0
110 646 m 0
 110 284 163 -16 484 -16 c 0
 803 -16 856 284 856 646 c 0
 856 1011 804 1308 484 1308 c 0
 160 1308 110 1014 110 646 c 0
EndSplineSet
EndChar
